<svg xmlns="http://www.w3.org/2000/svg" width="800" height="600" viewBox="0 0 800 600"><rect width="100%" height="100%" fill="#2563eb"/><path fill="#ffffff" d="M196.65 269.025h8.29v50.61h-4.83q-1.12 0-1.87-.37t-1.45-1.24l-26.43-33.74q.21 2.31.21 4.27v31.08h-8.29v-50.61h4.93q.6 0 1.03.05.44.05.77.21.34.16.65.46.32.29.7.78l26.53 33.88q-.1-1.22-.17-2.41t-.07-2.21zm40.49 14.7h8.65v35.91h-5.29q-1.71 0-2.17-1.58l-.59-2.87q-2.21 2.24-4.87 3.63-2.66 1.38-6.26 1.38-2.94 0-5.2-1t-3.8-2.82-2.33-4.32q-.78-2.5-.78-5.51v-22.82h8.64v22.82q0 3.29 1.52 5.09 1.53 1.8 4.57 1.8 2.24 0 4.2-.99 1.96-1 3.71-2.75zm24.82 2.17.52 4.06q1.68-3.22 3.99-5.06t5.46-1.84q2.49 0 3.99 1.09l-.56 6.47q-.17.63-.51.9-.33.26-.89.26-.52 0-1.56-.18-1.03-.17-2.01-.17-1.43 0-2.55.42t-2.02 1.21q-.89.78-1.57 1.9t-1.28 2.56v22.12h-8.64v-35.91h5.07q1.33 0 1.86.47.52.47.7 1.7m42.35 1.71-1.96 3.12q-.35.56-.74.79-.38.22-.98.22-.63 0-1.35-.35-.71-.35-1.66-.78-.94-.44-2.15-.79t-2.85-.35q-2.56 0-4.01 1.08-1.45 1.09-1.45 2.84 0 1.15.75 1.94t1.99 1.38q1.25.6 2.82 1.07 1.58.47 3.2 1.03 1.63.56 3.21 1.28 1.57.72 2.81 1.82 1.25 1.1 2 2.64t.75 3.71q0 2.59-.93 4.78-.92 2.19-2.74 3.78t-4.5 2.49q-2.68.89-6.18.89-1.85 0-3.62-.33-1.77-.34-3.4-.93-1.62-.6-3.01-1.4-1.38-.81-2.43-1.75l2-3.29q.38-.6.91-.91.52-.32 1.33-.32.8 0 1.52.46.72.45 1.66.98.95.52 2.22.98 1.28.45 3.24.45 1.54 0 2.64-.36 1.11-.37 1.82-.97.72-.59 1.05-1.38.34-.79.34-1.63 0-1.26-.76-2.06-.75-.81-1.99-1.4-1.24-.6-2.84-1.07-1.59-.47-3.25-1.03t-3.26-1.31q-1.59-.76-2.83-1.91-1.24-1.16-2-2.84-.75-1.68-.75-4.06 0-2.2.88-4.2.87-1.99 2.57-3.48t4.23-2.38q2.54-.89 5.87-.89 3.71 0 6.75 1.22 3.05 1.23 5.08 3.22m7.17-3.88h8.68v35.91h-8.68zm9.87-10.47q0 1.12-.45 2.1-.46.98-1.21 1.72-.75.73-1.77 1.17-1.01.44-2.17.44-1.12 0-2.12-.44-.99-.44-1.73-1.17-.73-.74-1.17-1.72t-.44-2.1q0-1.15.44-2.17.44-1.01 1.17-1.75.74-.73 1.73-1.17 1-.44 2.12-.44 1.16 0 2.17.44 1.02.44 1.77 1.17.75.74 1.21 1.75.45 1.02.45 2.17m15.12 12.04.6 2.84q1.08-1.09 2.29-2.01 1.21-.93 2.55-1.58 1.35-.65 2.89-1.01 1.54-.37 3.36-.37 2.94 0 5.22 1 2.27.99 3.79 2.8 1.53 1.8 2.31 4.3.79 2.5.79 5.51v22.86h-8.64v-22.86q0-3.29-1.51-5.09-1.5-1.8-4.58-1.8-2.24 0-4.2 1.01-1.96 1.02-3.71 2.77v25.97h-8.65v-35.91h5.29q1.68 0 2.2 1.57m45.12 15.51q1.61 0 2.8-.44t1.97-1.21q.79-.77 1.19-1.85.41-1.09.41-2.38 0-2.66-1.6-4.22-1.59-1.56-4.77-1.56-3.19 0-4.78 1.56t-1.59 4.22q0 1.26.4 2.34.4 1.09 1.19 1.88.79.78 1.99 1.22 1.21.44 2.79.44m9.76 20.44q0-1.05-.63-1.72-.63-.66-1.71-1.03-1.09-.37-2.54-.54-1.45-.18-3.08-.26-1.63-.09-3.36-.16t-3.38-.28q-1.43.8-2.33 1.89-.89 1.09-.89 2.52 0 .95.47 1.77.48.82 1.51 1.42 1.03.59 2.68.92 1.64.34 4.02.34 2.42 0 4.17-.37t2.88-1.02q1.14-.64 1.67-1.54.52-.89.52-1.94m-1.71-36.3h10.32v3.22q0 1.54-1.85 1.89l-3.22.6q.73 1.85.73 4.06 0 2.66-1.07 4.81-1.06 2.15-2.95 3.66-1.89 1.5-4.47 2.33-2.57.82-5.54.82-1.05 0-2.03-.11-.98-.1-1.93-.28-1.68 1.02-1.68 2.28 0 1.08 1 1.59t2.64.72q1.65.21 3.75.26t4.3.23q2.21.17 4.31.61t3.74 1.38q1.65.95 2.64 2.58 1 1.62 1 4.18 0 2.38-1.17 4.62t-3.4 3.99q-2.22 1.75-5.46 2.82-3.23 1.07-7.36 1.07-4.06 0-7.07-.79t-5.01-2.1q-1.99-1.31-2.97-3.03-.98-1.71-.98-3.57 0-2.52 1.52-4.22t4.18-2.71q-1.43-.74-2.27-1.96-.84-1.23-.84-3.22 0-.81.29-1.66.3-.86.88-1.7t1.45-1.59q.88-.76 2.07-1.35-2.73-1.47-4.29-3.92t-1.56-5.74q0-2.66 1.07-4.81 1.07-2.16 2.97-3.68 1.91-1.52 4.52-2.33 2.61-.8 5.69-.8 2.31 0 4.34.47t3.71 1.38m63.45-11.16-2.34 4.44q-.42.74-.9 1.07-.47.33-1.17.33-.73 0-1.59-.54t-2.05-1.21q-1.19-.66-2.78-1.2-1.59-.55-3.76-.55-1.96 0-3.43.48-1.47.47-2.47 1.31t-1.49 2.01-.49 2.57q0 1.79 1 2.98t2.64 2.03q1.65.84 3.75 1.5 2.1.67 4.3 1.42 2.21.75 4.31 1.75t3.74 2.52q1.65 1.52 2.64 3.73 1 2.2 1 5.35 0 3.43-1.17 6.43-1.17 2.99-3.43 5.21t-5.51 3.5q-3.26 1.28-7.46 1.28-2.41 0-4.76-.47-2.34-.48-4.5-1.35-2.15-.88-4.04-2.1-1.89-1.23-3.36-2.73l2.77-4.52q.35-.49.91-.82t1.19-.33q.87 0 1.89.72 1.01.71 2.41 1.59 1.4.87 3.27 1.59 1.88.72 4.5.72 4.03 0 6.23-1.91 2.21-1.91 2.21-5.48 0-1.99-1-3.25t-2.64-2.12q-1.65-.86-3.75-1.45-2.1-.6-4.27-1.3t-4.27-1.68-3.74-2.55q-1.65-1.58-2.65-3.94-.99-2.36-.99-5.83 0-2.76 1.1-5.39 1.1-2.62 3.2-4.65t5.18-3.26q3.08-1.22 7.07-1.22 4.48 0 8.26 1.4t6.44 3.92m19.71 46.41q-4.69 0-7.2-2.64-2.5-2.65-2.5-7.3v-20.06h-3.67q-.7 0-1.19-.45-.49-.46-.49-1.37v-3.43l5.77-.94 1.82-9.8q.18-.7.67-1.09.49-.38 1.26-.38h4.48v11.3h9.59v6.16h-9.59v19.46q0 1.69.82 2.63t2.26.94q.8 0 1.34-.19.55-.19.95-.4t.72-.4q.31-.2.63-.2.38 0 .63.2.24.19.52.57l2.59 4.2q-1.89 1.58-4.34 2.38-2.45.81-5.07.81m33.04-9.84v-6.05q-3.75.17-6.3.65-2.56.47-4.1 1.2-1.54.74-2.2 1.72-.67.98-.67 2.13 0 2.28 1.35 3.26t3.52.98q2.66 0 4.6-.96 1.94-.97 3.8-2.93m-18.27-18.86-1.54-2.77q6.19-5.67 14.91-5.67 3.15 0 5.63 1.04 2.49 1.03 4.2 2.87 1.72 1.83 2.61 4.39.89 2.55.89 5.6v22.68h-3.92q-1.22 0-1.89-.37-.66-.37-1.05-1.49l-.77-2.59q-1.36 1.23-2.66 2.16-1.29.92-2.69 1.55t-3 .97q-1.59.33-3.51.33-2.28 0-4.2-.61-1.93-.62-3.33-1.84-1.4-1.23-2.17-3.05t-.77-4.23q0-1.37.46-2.71.45-1.35 1.48-2.58 1.04-1.22 2.68-2.31 1.65-1.08 4.04-1.89 2.4-.8 5.59-1.31 3.18-.51 7.28-.61v-2.1q0-3.61-1.54-5.34t-4.45-1.73q-2.1 0-3.48.49t-2.43 1.1-1.91 1.1-1.91.49q-.91 0-1.54-.47t-1.01-1.1m46.79 28.7q-4.69 0-7.19-2.64-2.5-2.65-2.5-7.3v-20.06h-3.68q-.7 0-1.19-.45-.49-.46-.49-1.37v-3.43l5.78-.94 1.82-9.8q.17-.7.66-1.09.49-.38 1.26-.38h4.48v11.3h9.59v6.16h-9.59v19.46q0 1.69.83 2.63.82.94 2.25.94.81 0 1.35-.19t.94-.4q.41-.21.72-.4.32-.2.63-.2.39 0 .63.2.25.19.53.57l2.59 4.2q-1.89 1.58-4.34 2.38-2.45.81-5.08.81m14.35-36.47h8.68v35.91h-8.68zm9.87-10.47q0 1.12-.45 2.1-.46.98-1.21 1.72-.75.73-1.77 1.17-1.01.44-2.17.44-1.12 0-2.12-.44-.99-.44-1.73-1.17-.73-.74-1.17-1.72t-.44-2.1q0-1.15.44-2.17.44-1.01 1.17-1.75.74-.73 1.73-1.17 1-.44 2.12-.44 1.16 0 2.17.44 1.02.44 1.77 1.17.75.74 1.21 1.75.45 1.02.45 2.17m23.52 9.91q3.99 0 7.26 1.29 3.28 1.3 5.6 3.68 2.33 2.38 3.59 5.81t1.26 7.66q0 4.27-1.26 7.7t-3.59 5.85q-2.32 2.41-5.6 3.71-3.27 1.3-7.26 1.3-4.02 0-7.31-1.3t-5.62-3.71q-2.33-2.42-3.61-5.85-1.27-3.43-1.27-7.7 0-4.23 1.27-7.66 1.28-3.43 3.61-5.81t5.62-3.68q3.29-1.29 7.31-1.29m0 30.34q4.48 0 6.63-3.01 2.16-3.01 2.16-8.82t-2.16-8.85q-2.15-3.05-6.63-3.05-4.55 0-6.74 3.07-2.18 3.06-2.18 8.83 0 5.78 2.18 8.81 2.19 3.02 6.74 3.02m31.82-28.21.59 2.84q1.09-1.09 2.29-2.01 1.21-.93 2.56-1.58t2.89-1.01q1.54-.37 3.36-.37 2.94 0 5.21 1 2.28.99 3.8 2.8 1.52 1.8 2.31 4.3t.79 5.51v22.86h-8.65v-22.86q0-3.29-1.5-5.09-1.51-1.8-4.59-1.8-2.24 0-4.2 1.01-1.96 1.02-3.71 2.77v25.97h-8.64v-35.91h5.28q1.68 0 2.21 1.57"/></svg>