<svg xmlns="http://www.w3.org/2000/svg" width="800" height="600" viewBox="0 0 800 600"><rect width="100%" height="100%" fill="#2563eb"/><path fill="#ffffff" d="M297.31 234.2h18.47v131.59h-21.57V280.8q0-5.1.55-11.01l-39.77 74.71q-2.82 5.37-8.64 5.37h-3.46q-5.83 0-8.65-5.37l-40.22-74.99q.27 3.01.46 5.92.18 2.91.18 5.37v84.99h-21.57V234.2h18.47q1.64 0 2.82.09 1.19.1 2.14.46.96.36 1.73 1.18.78.82 1.5 2.19l39.41 73.07q1.54 2.91 2.86 6.01 1.32 3.09 2.6 6.37 1.27-3.37 2.64-6.51 1.36-3.14 2.91-6.05l38.85-72.89q.73-1.37 1.55-2.19t1.78-1.18q.95-.36 2.13-.46 1.19-.09 2.83-.09m72.34 0v131.59h-24.57V234.2zm119.76 100.56q2 0 3.55 1.55l9.64 10.46q-8.01 9.92-19.7 15.2t-28.07 5.28q-14.65 0-26.35-5.01-11.69-5-19.97-13.92t-12.7-21.3q-4.41-12.37-4.41-27.02 0-14.84 4.73-27.17t13.33-21.24q8.6-8.92 20.52-13.88t26.39-4.96q14.38 0 25.53 4.73t18.97 12.38l-8.19 11.37q-.73 1.09-1.86 1.91-1.14.82-3.14.82-1.37 0-2.82-.77-1.46-.78-3.19-1.91-1.73-1.14-4-2.51-2.28-1.36-5.28-2.5t-6.96-1.91-9.15-.77q-8.82 0-16.15 3.14t-12.6 9.1q-5.28 5.96-8.19 14.56-2.92 8.6-2.92 19.61 0 11.1 3.14 19.74 3.14 8.65 8.51 14.56 5.37 5.92 12.65 9.06t15.65 3.14q5.01 0 9.06-.55 4.05-.54 7.46-1.73 3.41-1.18 6.46-3.05 3.05-1.86 6.05-4.59.91-.82 1.91-1.32t2.1-.5m82.99 11.28q7.1 0 12.69-2.36 5.6-2.37 9.42-6.65 3.82-4.27 5.87-10.37t2.05-13.65V234.2h24.48v78.81q0 11.74-3.78 21.7-3.78 9.97-10.83 17.2-7.05 7.24-17.15 11.29t-22.75 4.05q-12.74 0-22.84-4.05t-17.16-11.29q-7.05-7.23-10.82-17.2-3.78-9.96-3.78-21.7V234.2h24.48v78.72q0 7.55 2.05 13.65 2.04 6.1 5.91 10.42t9.46 6.69q5.6 2.36 12.7 2.36"/></svg>