<svg xmlns="http://www.w3.org/2000/svg" width="800" height="600" viewBox="0 0 800 600"><rect width="100%" height="100%" fill="#2563eb"/><path fill="#ffffff" d="M178.29 292.175h10.96q4.03 0 7.03-1 3-1.01 4.99-2.89t2.97-4.58.98-6.02q0-3.16-.98-5.73-.98-2.56-2.95-4.36-1.96-1.79-4.96-2.75-2.99-.95-7.08-.95h-10.96zm-14.66-39.62h25.62q7.9 0 13.68 1.86 5.78 1.85 9.54 5.17 3.76 3.33 5.58 7.96 1.83 4.63 1.83 10.14 0 5.72-1.91 10.49t-5.72 8.2q-3.82 3.43-9.57 5.34t-13.43 1.91h-10.96v27.74h-14.66zm78.81-2.18v31.07q3.27-3.05 7.19-4.96 3.93-1.91 9.22-1.91 4.57 0 8.12 1.55 3.54 1.56 5.91 4.36 2.37 2.81 3.6 6.71 1.22 3.89 1.22 8.58v35.59h-13.46v-35.59q0-5.12-2.34-7.93-2.35-2.81-7.14-2.81-3.49 0-6.54 1.59-3.05 1.58-5.78 4.3v40.44h-13.46v-80.99zm77.55 66.55v-9.43q-5.83.27-9.81 1.01-3.97.73-6.37 1.88-2.4 1.14-3.44 2.67-1.03 1.52-1.03 3.32 0 3.54 2.1 5.07t5.47 1.53q4.15 0 7.17-1.5 3.03-1.5 5.91-4.55m-28.44-29.38-2.4-4.3q9.64-8.83 23.21-8.83 4.91 0 8.78 1.61 3.87 1.6 6.54 4.46 2.67 2.87 4.06 6.84 1.39 3.98 1.39 8.72v35.32h-6.11q-1.9 0-2.94-.57-1.03-.57-1.63-2.32l-1.2-4.03q-2.13 1.91-4.14 3.35-2.02 1.44-4.2 2.43-2.18.98-4.66 1.49-2.48.52-5.48.52-3.54 0-6.54-.95-3-.96-5.18-2.86-2.18-1.91-3.37-4.74-1.2-2.84-1.2-6.6 0-2.12.71-4.22.7-2.1 2.31-4.01t4.17-3.6q2.56-1.68 6.3-2.94 3.73-1.25 8.69-2.04t11.33-.96v-3.27q0-5.61-2.39-8.31-2.4-2.7-6.93-2.7-3.27 0-5.42.77-2.15.76-3.79 1.71-1.63.96-2.97 1.72-1.33.76-2.97.76-1.41 0-2.39-.73-.99-.74-1.58-1.72m66.1-8.72.82 6.32q2.62-5.01 6.21-7.87 3.6-2.86 8.51-2.86 3.87 0 6.21 1.69l-.87 10.08q-.28.98-.79 1.39-.52.41-1.39.41-.82 0-2.43-.27-1.61-.28-3.13-.28-2.24 0-3.98.66-1.74.65-3.13 1.88-1.39 1.22-2.46 2.97-1.06 1.74-1.99 3.98v34.44h-13.46v-55.92h7.91q2.07 0 2.88.74.82.73 1.09 2.64m42.24 52.54h-13.46v-55.92h8.23q2.62 0 3.43 2.46l.87 4.14q1.48-1.64 3.08-3 1.61-1.36 3.44-2.34 1.82-.98 3.92-1.56 2.1-.57 4.61-.57 5.28 0 8.69 2.86t5.1 7.6q1.3-2.77 3.27-4.76 1.96-1.99 4.3-3.25 2.34-1.25 4.99-1.85 2.64-.6 5.31-.6 4.63 0 8.23 1.42t6.05 4.14 3.73 6.65q1.28 3.92 1.28 8.99v35.59H451.5v-35.59q0-5.34-2.34-8.04t-6.87-2.7q-2.07 0-3.84.71t-3.11 2.05q-1.33 1.33-2.09 3.35-.77 2.02-.77 4.63v35.59h-13.51v-35.59q0-5.61-2.27-8.17-2.26-2.57-6.62-2.57-2.94 0-5.47 1.45-2.54 1.44-4.72 3.95zm107.37-14.44v-9.43q-5.84.27-9.81 1.01-3.98.73-6.38 1.88-2.4 1.14-3.43 2.67-1.04 1.52-1.04 3.32 0 3.54 2.1 5.07t5.48 1.53q4.14 0 7.16-1.5 3.03-1.5 5.92-4.55m-28.45-29.38-2.4-4.3q9.65-8.83 23.22-8.83 4.9 0 8.77 1.61 3.87 1.6 6.54 4.46 2.67 2.87 4.06 6.84 1.39 3.98 1.39 8.72v35.32h-6.1q-1.91 0-2.95-.57-1.03-.57-1.63-2.32l-1.2-4.03q-2.13 1.91-4.14 3.35-2.02 1.44-4.2 2.43-2.18.98-4.66 1.49-2.48.52-5.48.52-3.54 0-6.54-.95-2.99-.96-5.17-2.86-2.18-1.91-3.38-4.74-1.2-2.84-1.2-6.6 0-2.12.71-4.22t2.31-4.01q1.61-1.91 4.17-3.6 2.56-1.68 6.3-2.94 3.73-1.25 8.69-2.04t11.34-.96v-3.27q0-5.61-2.4-8.31t-6.92-2.7q-3.27 0-5.43.77-2.15.76-3.78 1.71-1.64.96-2.97 1.72-1.34.76-2.97.76-1.42 0-2.4-.73-.98-.74-1.58-1.72m97.82-5.18-3.54 4.91q-.6.76-1.17 1.2-.57.43-1.66.43-1.04 0-2.02-.62-.98-.63-2.34-1.42t-3.24-1.42q-1.88-.62-4.66-.62-3.55 0-6.22 1.28t-4.44 3.68q-1.77 2.39-2.64 5.8t-.87 7.71q0 4.47.95 7.96t2.75 5.86 4.36 3.6q2.56 1.22 5.78 1.22 3.21 0 5.2-.79t3.36-1.74q1.36-.96 2.37-1.75 1-.79 2.26-.79 1.63 0 2.45 1.26l3.87 4.9q-2.23 2.62-4.85 4.39t-5.42 2.83q-2.81 1.07-5.78 1.5-2.97.44-5.91.44-5.18 0-9.76-1.94-4.58-1.93-8.01-5.64-3.43-3.7-5.42-9.07t-1.99-12.24q0-6.16 1.77-11.42 1.77-5.25 5.2-9.1 3.44-3.84 8.51-6.02 5.06-2.18 11.66-2.18 6.27 0 10.98 2.02 4.71 2.01 8.47 5.77m48.95-6.92h10.79l-30.47 71.29q-.6 1.42-1.55 2.15-.96.74-2.92.74H591.4l10.47-22.46-22.62-51.72h11.83q1.58 0 2.48.77.9.76 1.33 1.74l11.88 28.99q.6 1.48 1.01 2.95t.79 2.99q.49-1.52.98-3.02t1.09-2.97l11.23-28.94q.44-1.09 1.44-1.8 1.01-.71 2.27-.71"/></svg>