<svg xmlns="http://www.w3.org/2000/svg" width="800" height="600" viewBox="0 0 800 600"><rect width="100%" height="100%" fill="#2563eb"/><path fill="#ffffff" d="M185.02 283.605H169.3v9.82h12.39v5.07H169.3v10.02h15.72v5.27h-22.34v-35.43h22.34zm10.93 30.18h-6.05v-25.14h3.7q1.18 0 1.54 1.11l.4 1.86q.66-.74 1.38-1.35t1.54-1.05 1.77-.7q.94-.26 2.07-.26 2.37 0 3.91 1.29 1.53 1.28 2.29 3.42.58-1.25 1.47-2.15.88-.89 1.93-1.46 1.05-.56 2.24-.83t2.39-.27q2.08 0 3.7.64 1.62.63 2.72 1.86t1.68 2.99q.57 1.76.57 4.04v16h-6.05v-16q0-2.4-1.05-3.61t-3.09-1.21q-.93 0-1.72.31-.8.32-1.4.92t-.94 1.51q-.35.91-.35 2.08v16h-6.07v-16q0-2.52-1.02-3.67t-2.98-1.15q-1.32 0-2.46.64-1.14.65-2.12 1.78zm39.77-15.46h11.41q0-1.18-.33-2.22t-.99-1.82q-.66-.79-1.68-1.24t-2.36-.45q-2.62 0-4.13 1.49-1.51 1.5-1.92 4.24m15.43 3.65h-15.56q.15 1.94.69 3.35.54 1.4 1.42 2.32t2.09 1.37q1.22.46 2.69.46t2.53-.35q1.07-.34 1.87-.75.79-.42 1.39-.76.6-.35 1.17-.35.75 0 1.12.57l1.74 2.2q-1 1.18-2.25 1.97-1.25.8-2.61 1.28t-2.77.67q-1.41.2-2.73.2-2.62 0-4.88-.87-2.25-.87-3.92-2.57-1.66-1.71-2.62-4.22-.95-2.51-.95-5.82 0-2.57.83-4.84.83-2.26 2.39-3.94 1.55-1.68 3.8-2.66 2.24-.98 5.05-.98 2.38 0 4.39.76t3.45 2.22q1.45 1.46 2.27 3.57.82 2.12.82 4.84 0 1.38-.29 1.85-.3.48-1.13.48m11.29-11.81.37 2.84q1.18-2.25 2.8-3.54 1.61-1.28 3.82-1.28 1.74 0 2.79.76l-.39 4.53q-.12.44-.36.62-.23.19-.62.19-.37 0-1.09-.12-.72-.13-1.41-.13-1.01 0-1.79.3-.78.29-1.41.84-.62.55-1.1 1.34-.48.78-.89 1.79v15.48h-6.06v-25.14h3.56q.93 0 1.29.33.37.33.49 1.19m22.13 10.44q1.13 0 1.96-.31.83-.3 1.38-.84t.84-1.3q.28-.76.28-1.67 0-1.86-1.12-2.95-1.11-1.09-3.34-1.09t-3.35 1.09q-1.11 1.09-1.11 2.95 0 .89.28 1.64.28.76.83 1.32.56.55 1.4.85.85.31 1.95.31m6.83 14.31q0-.74-.44-1.2-.44-.47-1.2-.73-.76-.25-1.77-.38-1.02-.12-2.16-.18t-2.35-.11-2.37-.2q-1 .57-1.63 1.33-.62.76-.62 1.76 0 .66.33 1.24.33.57 1.05.99.73.42 1.88.65t2.82.23q1.69 0 2.91-.25 1.23-.26 2.02-.72.8-.45 1.17-1.07.36-.63.36-1.36m-1.2-25.41h7.23v2.25q0 1.08-1.3 1.33l-2.25.41q.51 1.3.51 2.85 0 1.86-.74 3.36-.75 1.51-2.07 2.56-1.33 1.06-3.13 1.63-1.8.58-3.88.58-.74 0-1.42-.07-.69-.08-1.35-.2-1.18.71-1.18 1.59 0 .76.7 1.12.7.35 1.85.5t2.62.18q1.47.04 3.02.16 1.54.13 3.01.43 1.47.31 2.62.97t1.85 1.8.7 2.93q0 1.66-.82 3.23t-2.38 2.8q-1.55 1.22-3.82 1.97-2.27.74-5.16.74-2.84 0-4.95-.55-2.1-.55-3.5-1.47t-2.08-2.12q-.69-1.2-.69-2.49 0-1.77 1.07-2.96 1.06-1.19 2.93-1.9-1.01-.51-1.6-1.37-.58-.86-.58-2.25 0-.57.2-1.17.21-.6.62-1.18.4-.59 1.01-1.12.62-.53 1.45-.94-1.91-1.03-3-2.75-1.09-1.71-1.09-4.01 0-1.87.74-3.37.75-1.51 2.09-2.58 1.33-1.06 3.16-1.62 1.82-.57 3.98-.57 1.62 0 3.04.33t2.59.97m15.83 8.82h11.42q0-1.18-.33-2.22t-1-1.82q-.66-.79-1.67-1.24-1.02-.45-2.37-.45-2.62 0-4.13 1.49-1.5 1.5-1.92 4.24m15.44 3.65h-15.56q.14 1.94.68 3.35.54 1.4 1.42 2.32.89.92 2.1 1.37 1.21.46 2.68.46t2.54-.35q1.06-.34 1.86-.75.8-.42 1.4-.76.6-.35 1.16-.35.76 0 1.13.57l1.74 2.2q-1.01 1.18-2.26 1.97-1.25.8-2.61 1.28t-2.76.67q-1.41.2-2.74.2-2.62 0-4.87-.87-2.26-.87-3.92-2.57-1.67-1.71-2.62-4.22-.96-2.51-.96-5.82 0-2.57.83-4.84.84-2.26 2.39-3.94 1.56-1.68 3.8-2.66t5.06-.98q2.38 0 4.38.76 2.01.76 3.46 2.22 1.44 1.46 2.27 3.57.82 2.12.82 4.84 0 1.38-.3 1.85-.29.48-1.12.48m11.19-12.22.42 1.98q.76-.76 1.6-1.41.85-.65 1.79-1.1t2.02-.71 2.35-.26q2.06 0 3.66.7 1.59.7 2.65 1.96 1.07 1.26 1.62 3.01t.55 3.86v16h-6.05v-16q0-2.3-1.05-3.56-1.06-1.26-3.21-1.26-1.57 0-2.94.71t-2.6 1.93v18.18h-6.05v-25.14h3.7q1.17 0 1.54 1.11m41.99 2-1.59 2.21q-.27.34-.52.54-.26.19-.75.19-.47 0-.91-.28t-1.05-.63q-.61-.36-1.46-.64-.84-.28-2.09-.28-1.6 0-2.8.57-1.2.58-1.99 1.66-.8 1.07-1.19 2.61-.39 1.53-.39 3.46 0 2.01.42 3.58.43 1.57 1.24 2.63.81 1.07 1.96 1.62t2.6.55q1.44 0 2.34-.35.89-.36 1.51-.79.61-.43 1.06-.78.45-.36 1.02-.36.73 0 1.1.57l1.74 2.2q-1 1.18-2.18 1.97-1.18.8-2.44 1.28t-2.6.67q-1.33.2-2.65.2-2.33 0-4.39-.87t-3.6-2.54q-1.54-1.66-2.44-4.08-.89-2.41-.89-5.5 0-2.77.79-5.13.8-2.36 2.34-4.09 1.55-1.73 3.83-2.71 2.27-.98 5.24-.98 2.82 0 4.94.91 2.11.9 3.8 2.59m22.01-3.11h4.85l-13.7 32.05q-.27.64-.7.97t-1.31.33h-4.51l4.71-10.1-10.17-23.25h5.32q.71 0 1.11.35.41.34.6.78l5.34 13.03q.27.67.46 1.33.18.66.35 1.34l.44-1.36q.22-.67.49-1.33l5.05-13.01q.2-.49.65-.81t1.02-.32m28.17 11.76h11.27l-4.31-11.78q-.32-.79-.66-1.86-.35-1.08-.69-2.33-.32 1.25-.66 2.34t-.66 1.9zm8.99-22.05 13.92 35.43h-5.1q-.86 0-1.39-.43-.54-.43-.81-1.06l-2.65-7.23h-14.67l-2.65 7.23q-.2.56-.76 1.02-.56.47-1.4.47h-5.14l13.94-35.43zm32.42 27.98v-11.27q-1.03-1.25-2.25-1.76-1.21-.52-2.61-.52-1.37 0-2.47.52-1.1.51-1.89 1.55-.78 1.04-1.2 2.65-.41 1.6-.41 3.78 0 2.21.35 3.74.36 1.53 1.02 2.5t1.62 1.4q.95.43 2.13.43 1.88 0 3.21-.79 1.32-.78 2.5-2.23m0-28.96h6.05v36.41h-3.7q-1.2 0-1.52-1.1l-.52-2.43q-1.51 1.74-3.49 2.82-1.97 1.08-4.59 1.08-2.06 0-3.77-.86-1.72-.86-2.96-2.49-1.23-1.63-1.91-4.03-.67-2.4-.67-5.49 0-2.79.76-5.19t2.18-4.16q1.42-1.77 3.4-2.76 1.99-.99 4.46-.99 2.11 0 3.61.66 1.49.66 2.67 1.79zm18.08 36.41h-6.05v-25.14h3.69q1.18 0 1.55 1.11l.39 1.86q.66-.74 1.38-1.35.73-.61 1.55-1.05t1.76-.7q.95-.26 2.07-.26 2.38 0 3.91 1.29 1.53 1.28 2.29 3.42.59-1.25 1.47-2.15.88-.89 1.94-1.46 1.05-.56 2.24-.83t2.39-.27q2.08 0 3.7.64 1.61.63 2.72 1.86 1.1 1.23 1.67 2.99.58 1.76.58 4.04v16h-6.05v-16q0-2.4-1.06-3.61-1.05-1.21-3.08-1.21-.93 0-1.73.31-.8.32-1.4.92t-.94 1.51-.34 2.08v16h-6.08v-16q0-2.52-1.01-3.67-1.02-1.15-2.98-1.15-1.32 0-2.46.64-1.14.65-2.12 1.78zm35.18-25.14h6.07v25.14h-6.07zm6.91-7.32q0 .78-.32 1.47-.32.68-.85 1.2-.52.51-1.23.82-.71.3-1.52.3-.79 0-1.48-.3-.7-.31-1.22-.82-.51-.52-.82-1.2-.3-.69-.3-1.47 0-.81.3-1.52.31-.71.82-1.23.52-.51 1.22-.82.69-.3 1.48-.3.81 0 1.52.3.71.31 1.23.82.53.52.85 1.23t.32 1.52m22.05 10.04-1.37 2.18q-.25.39-.52.55t-.68.16q-.45 0-.95-.24-.5-.25-1.16-.55-.66-.31-1.51-.55-.84-.25-2-.25-1.78 0-2.8.76t-1.02 1.98q0 .81.53 1.36.53.56 1.4.97.87.42 1.97.75t2.24.72 2.24.9q1.1.5 1.97 1.27t1.4 1.85.53 2.6q0 1.81-.65 3.34t-1.93 2.65q-1.27 1.11-3.14 1.74-1.88.62-4.33.62-1.3 0-2.53-.23-1.24-.23-2.38-.65t-2.11-.98q-.96-.56-1.7-1.23l1.4-2.3q.27-.41.63-.63.37-.23.93-.23.57 0 1.07.32t1.16.69q.67.37 1.56.68.89.32 2.27.32 1.07 0 1.85-.25.77-.26 1.27-.68.5-.41.74-.97.23-.55.23-1.13 0-.89-.53-1.45t-1.4-.98-1.98-.75-2.28-.72q-1.16-.39-2.28-.92-1.11-.53-1.98-1.33-.87-.81-1.4-1.99-.52-1.17-.52-2.84 0-1.54.61-2.94t1.8-2.44 2.96-1.66q1.78-.63 4.11-.63 2.59 0 4.73.86 2.13.86 3.55 2.25m21.53 0-1.37 2.18q-.24.39-.51.55t-.69.16q-.44 0-.94-.24-.5-.25-1.17-.55-.66-.31-1.5-.55-.85-.25-2-.25-1.79 0-2.8.76-1.02.76-1.02 1.98 0 .81.53 1.36.52.56 1.39.97.87.42 1.97.75 1.11.33 2.25.72 1.13.39 2.24.9 1.1.5 1.97 1.27t1.4 1.85q.52 1.08.52 2.6 0 1.81-.65 3.34t-1.92 2.65q-1.27 1.11-3.15 1.74-1.87.62-4.32.62-1.3 0-2.54-.23t-2.37-.65q-1.14-.42-2.11-.98t-1.7-1.23l1.39-2.3q.27-.41.64-.63.37-.23.93-.23t1.07.32q.5.32 1.16.69t1.56.68q.89.32 2.26.32 1.08 0 1.85-.25.77-.26 1.28-.68.5-.41.73-.97.23-.55.23-1.13 0-.89-.52-1.45-.53-.56-1.4-.98t-1.98-.75q-1.12-.33-2.28-.72-1.17-.39-2.28-.92-1.12-.53-1.99-1.33-.87-.81-1.39-1.99-.53-1.17-.53-2.84 0-1.54.61-2.94.62-1.4 1.8-2.44 1.19-1.04 2.97-1.66 1.77-.63 4.1-.63 2.6 0 4.73.86t3.55 2.25m5.03-2.72h6.07v25.14h-6.07zm6.9-7.32q0 .78-.31 1.47-.32.68-.85 1.2-.53.51-1.24.82-.71.3-1.52.3-.78 0-1.48-.3-.7-.31-1.21-.82-.51-.52-.82-1.2-.31-.69-.31-1.47 0-.81.31-1.52t.82-1.23q.51-.51 1.21-.82.7-.3 1.48-.3.81 0 1.52.3.71.31 1.24.82.53.52.85 1.23.31.71.31 1.52m16.47 6.93q2.79 0 5.08.91 2.29.9 3.92 2.57t2.51 4.07q.89 2.4.89 5.36 0 2.99-.89 5.39-.88 2.4-2.51 4.09t-3.92 2.6-5.08.91q-2.82 0-5.12-.91t-3.93-2.6-2.53-4.09q-.89-2.4-.89-5.39 0-2.96.89-5.36.9-2.4 2.53-4.07t3.93-2.57q2.3-.91 5.12-.91m0 21.24q3.13 0 4.64-2.1 1.51-2.11 1.51-6.18t-1.51-6.2-4.64-2.13q-3.19 0-4.72 2.15-1.53 2.14-1.53 6.18t1.53 6.16 4.72 2.12m22.27-19.74.42 1.98q.76-.76 1.6-1.41.85-.65 1.79-1.1t2.02-.71 2.35-.26q2.06 0 3.65.7 1.6.7 2.66 1.96 1.07 1.26 1.62 3.01t.55 3.86v16h-6.05v-16q0-2.3-1.06-3.56-1.05-1.26-3.21-1.26-1.56 0-2.94.71-1.37.71-2.59 1.93v18.18h-6.05v-25.14h3.7q1.17 0 1.54 1.11"/></svg>