<svg xmlns="http://www.w3.org/2000/svg" width="800" height="600" viewBox="0 0 800 600"><rect width="100%" height="100%" fill="#2563eb"/><path fill="#ffffff" d="M269.645 229.505h23.11v140.99h-13.46q-3.12 0-5.21-1.02-2.1-1.03-4.05-3.47l-73.61-93.99q.58 6.44.58 11.9v86.58h-23.11v-140.99h13.75q1.66 0 2.88.15t2.14.59q.93.44 1.81 1.26.87.83 1.95 2.2l73.9 94.38q-.29-3.42-.49-6.73-.19-3.31-.19-6.14zm80.83 0v140.99h-26.33v-140.99zm128.31 107.74q2.14 0 3.8 1.66l10.33 11.21q-8.57 10.63-21.1 16.29-12.53 5.65-30.08 5.65-15.7 0-28.23-5.36-12.53-5.37-21.4-14.92-8.87-9.56-13.6-22.82t-4.73-28.95q0-15.9 5.07-29.11t14.28-22.76q9.22-9.56 21.99-14.87 12.77-5.32 28.27-5.32 15.41 0 27.35 5.08 11.95 5.06 20.33 13.25l-8.77 12.19q-.78 1.17-2 2.05t-3.36.88q-1.47 0-3.03-.83t-3.41-2.05-4.29-2.68-5.66-2.68q-3.21-1.22-7.45-2.05-4.25-.83-9.8-.83-9.46 0-17.31 3.37-7.85 3.36-13.5 9.75-5.66 6.38-8.78 15.6-3.12 9.21-3.12 21.01 0 11.89 3.37 21.15 3.36 9.27 9.11 15.61 5.75 6.33 13.55 9.7 7.8 3.36 16.77 3.36 5.37 0 9.71-.58 4.33-.59 7.99-1.86t6.92-3.26q3.27-2 6.49-4.93.97-.88 2.04-1.41 1.08-.54 2.25-.54m88.92 12.09q7.6 0 13.6-2.53 6-2.54 10.09-7.12 4.1-4.58 6.29-11.12 2.19-6.53 2.19-14.62v-84.44h26.23v84.44q0 12.58-4.05 23.25-4.04 10.68-11.6 18.43t-18.38 12.09-24.37 4.34q-13.65 0-24.48-4.34-10.82-4.34-18.37-12.09-7.56-7.75-11.61-18.43-4.04-10.67-4.04-23.25v-84.44h26.23v84.34q0 8.1 2.19 14.63t6.34 11.16q4.14 4.63 10.14 7.17 5.99 2.53 13.6 2.53"/></svg>