<svg xmlns="http://www.w3.org/2000/svg" width="800" height="600" viewBox="0 0 800 600"><rect width="100%" height="100%" fill="#2563eb"/><path fill="#ffffff" d="M188.27 277.94h-20.54v12.83h16.19v6.62h-16.19v13.09h20.54v6.88h-29.18v-46.27h29.18zm14.27 39.42h-7.9v-32.83h4.83q1.54 0 2.02 1.44l.51 2.43q.86-.96 1.81-1.76.94-.8 2.01-1.38 1.08-.57 2.31-.91 1.23-.33 2.7-.33 3.11 0 5.11 1.68t2.99 4.46q.77-1.63 1.92-2.8t2.53-1.9q1.37-.74 2.92-1.09 1.56-.35 3.12-.35 2.72 0 4.84.83 2.11.83 3.55 2.43t2.19 3.9q.75 2.31.75 5.28v20.9h-7.9v-20.9q0-3.13-1.38-4.72-1.37-1.58-4.03-1.58-1.22 0-2.26.42-1.04.41-1.82 1.2-.78.78-1.23 1.96-.45 1.19-.45 2.72v20.9h-7.94v-20.9q0-3.29-1.32-4.8-1.33-1.5-3.89-1.5-1.73 0-3.22.85t-2.77 2.32zm51.94-20.19h14.91q0-1.54-.43-2.9t-1.3-2.38q-.86-1.03-2.19-1.62t-3.09-.59q-3.42 0-5.39 1.95t-2.51 5.54m20.16 4.77h-20.32q.19 2.52.9 4.36.7 1.84 1.85 3.04t2.74 1.8q1.58.59 3.5.59t3.31-.45q1.4-.45 2.44-.99 1.04-.55 1.82-.99.78-.45 1.52-.45.99 0 1.47.73l2.27 2.88q-1.31 1.54-2.94 2.58t-3.41 1.66q-1.77.63-3.61.88-1.84.26-3.57.26-3.43 0-6.37-1.14-2.94-1.13-5.12-3.36-2.18-2.22-3.42-5.5-1.25-3.28-1.25-7.6 0-3.36 1.09-6.32 1.08-2.96 3.12-5.15 2.03-2.19 4.96-3.47 2.92-1.28 6.6-1.28 3.11 0 5.73.99 2.63.99 4.51 2.89 1.89 1.91 2.96 4.68 1.08 2.76 1.08 6.32 0 1.79-.39 2.41-.38.63-1.47.63m14.75-15.43.48 3.71q1.54-2.94 3.65-4.62t4.99-1.68q2.27 0 3.65.99l-.51 5.92q-.16.58-.47.82-.3.24-.81.24-.48 0-1.43-.16-.94-.16-1.84-.16-1.31 0-2.33.38-1.03.39-1.84 1.11-.82.72-1.44 1.74-.63 1.02-1.17 2.34v20.22h-7.9v-32.83h4.64q1.21 0 1.69.43t.64 1.55m28.9 13.63q1.47 0 2.56-.4t1.81-1.1 1.08-1.7q.37-.99.37-2.17 0-2.43-1.45-3.86-1.46-1.42-4.37-1.42t-4.37 1.42q-1.46 1.43-1.46 3.86 0 1.15.37 2.14t1.09 1.71 1.82 1.12q1.11.4 2.55.4m8.93 18.69q0-.96-.58-1.57-.58-.6-1.57-.94t-2.32-.5-2.81-.24q-1.49-.08-3.08-.14-1.58-.06-3.08-.26-1.32.74-2.13 1.73-.82.99-.82 2.31 0 .86.43 1.61.44.75 1.38 1.3.94.54 2.45.85 1.5.3 3.68.3 2.21 0 3.81-.34 1.6-.33 2.64-.92 1.04-.6 1.52-1.41.48-.82.48-1.78m-1.57-33.18h9.44v2.94q0 1.41-1.7 1.73l-2.94.54q.67 1.7.67 3.72 0 2.43-.98 4.4-.97 1.96-2.7 3.34t-4.08 2.13-5.07.75q-.96 0-1.86-.1-.89-.09-1.76-.25-1.53.93-1.53 2.08 0 .99.91 1.45.91.47 2.41.66 1.51.19 3.43.24t3.93.21q2.02.16 3.94.56t3.42 1.26q1.51.87 2.42 2.35.91 1.49.91 3.83 0 2.17-1.07 4.22t-3.1 3.65q-2.04 1.6-5 2.58-2.96.97-6.73.97-3.71 0-6.47-.72-2.75-.72-4.57-1.92-1.83-1.2-2.72-2.77-.9-1.56-.9-3.26 0-2.3 1.39-3.86 1.4-1.55 3.83-2.48-1.31-.67-2.08-1.79t-.77-2.94q0-.74.27-1.52.27-.79.8-1.55.53-.77 1.33-1.46t1.89-1.23q-2.5-1.35-3.92-3.59-1.43-2.24-1.43-5.24 0-2.44.98-4.4.98-1.97 2.72-3.36 1.74-1.4 4.13-2.13 2.38-.74 5.2-.74 2.11 0 3.97.43 1.85.44 3.39 1.27m20.67 11.52h14.91q0-1.54-.43-2.9t-1.3-2.38q-.86-1.03-2.19-1.62t-3.09-.59q-3.42 0-5.39 1.95t-2.51 5.54m20.16 4.77h-20.32q.19 2.52.9 4.36.7 1.84 1.85 3.04t2.74 1.8q1.58.59 3.5.59t3.31-.45q1.4-.45 2.44-.99 1.04-.55 1.82-.99.78-.45 1.52-.45.99 0 1.47.73l2.27 2.88q-1.31 1.54-2.94 2.58t-3.41 1.66q-1.77.63-3.61.88-1.84.26-3.57.26-3.43 0-6.37-1.14-2.94-1.13-5.12-3.36-2.18-2.22-3.42-5.5-1.25-3.28-1.25-7.6 0-3.36 1.09-6.32 1.08-2.96 3.12-5.15 2.03-2.19 4.96-3.47 2.92-1.28 6.6-1.28 3.11 0 5.73.99 2.63.99 4.51 2.89 1.89 1.91 2.96 4.68 1.08 2.76 1.08 6.32 0 1.79-.39 2.41-.38.63-1.47.63m14.62-15.97.55 2.59q.99-.99 2.09-1.84 1.11-.85 2.34-1.44t2.64-.93q1.41-.33 3.07-.33 2.69 0 4.77.91t3.47 2.56 2.11 3.93q.72 2.29.72 5.04v20.9h-7.9v-20.9q0-3-1.38-4.65-1.37-1.65-4.19-1.65-2.05 0-3.84.93t-3.39 2.53v23.74h-7.9v-32.83h4.83q1.53 0 2.01 1.44m54.85 2.62-2.08 2.88q-.35.45-.69.71-.33.25-.97.25-.61 0-1.19-.37-.57-.36-1.37-.83-.8-.46-1.91-.83-1.1-.37-2.73-.37-2.08 0-3.65.75-1.57.76-2.61 2.16-1.04 1.41-1.55 3.41t-.51 4.53q0 2.62.56 4.67t1.61 3.44q1.06 1.39 2.56 2.11 1.51.72 3.4.72 1.88 0 3.05-.46t1.97-1.02 1.39-1.03q.59-.46 1.33-.46.96 0 1.44.73l2.27 2.88q-1.31 1.54-2.85 2.58-1.53 1.04-3.18 1.66-1.65.63-3.39.88-1.75.26-3.47.26-3.04 0-5.73-1.14-2.69-1.13-4.71-3.31-2.01-2.17-3.18-5.33-1.17-3.15-1.17-7.18 0-3.62 1.04-6.7 1.04-3.09 3.06-5.35 2.01-2.25 4.99-3.53t6.85-1.28q3.68 0 6.45 1.18 2.76 1.18 4.97 3.39m28.74-4.06h6.33l-17.88 41.85q-.36.84-.92 1.27t-1.71.43h-5.89l6.15-13.18-13.28-30.37h6.94q.93 0 1.46.45.53.44.78 1.02l6.98 17.02q.35.87.59 1.73.24.87.46 1.76.29-.89.58-1.77t.64-1.75l6.59-16.99q.26-.64.85-1.06.59-.41 1.33-.41m56.25-6.59H500.4v12.83h16.19v6.62H500.4v13.09h20.54v6.88h-29.18v-46.27h29.18zm13.22 8.03.54 2.59q1-.99 2.1-1.84t2.34-1.44q1.23-.59 2.64-.93 1.4-.33 3.07-.33 2.69 0 4.77.91t3.47 2.56 2.11 3.93q.72 2.29.72 5.04v20.9h-7.9v-20.9q0-3-1.38-4.65t-4.19-1.65q-2.05 0-3.84.93t-3.39 2.53v23.74h-7.91v-32.83h4.83q1.54 0 2.02 1.44m40.19 31.9q-4.29 0-6.57-2.41-2.29-2.42-2.29-6.68v-18.33h-3.36q-.64 0-1.09-.42-.45-.41-.45-1.25v-3.13l5.28-.87 1.67-8.96q.16-.64.6-.99.45-.35 1.16-.35h4.09v10.34h8.77v5.63h-8.77v17.79q0 1.54.75 2.4.76.86 2.07.86.73 0 1.23-.17.5-.18.86-.37.37-.19.66-.37.29-.17.58-.17.35 0 .57.17.23.18.48.53l2.37 3.84q-1.73 1.44-3.97 2.18-2.24.73-4.64.73m19.84-31.36.48 3.71q1.54-2.94 3.65-4.62t4.99-1.68q2.27 0 3.65.99l-.51 5.92q-.16.58-.47.82-.3.24-.81.24-.48 0-1.43-.16-.94-.16-1.84-.16-1.31 0-2.33.38-1.03.39-1.84 1.11-.82.72-1.44 1.74-.63 1.02-1.17 2.34v20.22h-7.9v-32.83h4.64q1.21 0 1.69.43t.64 1.55m40.39-1.98h6.33l-17.89 41.85q-.35.84-.91 1.27t-1.71.43h-5.89l6.15-13.18-13.28-30.37h6.94q.93 0 1.46.45.52.44.78 1.02l6.98 17.02q.35.87.59 1.73.24.87.46 1.76.29-.89.58-1.77t.64-1.75L632.4 286q.26-.64.85-1.06.59-.41 1.33-.41"/></svg>