<svg xmlns="http://www.w3.org/2000/svg" width="800" height="600" viewBox="0 0 800 600"><rect width="100%" height="100%" fill="#2563eb"/><path fill="#ffffff" d="M192.04 300.395h18.72v22.81q-4.29 3.16-9.15 4.62-4.85 1.46-10.39 1.46-6.91 0-12.5-2.14-5.6-2.15-9.56-5.97t-6.1-9.12q-2.15-5.31-2.15-11.59 0-6.35 2.07-11.66 2.07-5.3 5.87-9.12 3.8-3.83 9.22-5.93 5.43-2.11 12.17-2.11 3.43 0 6.42.55 2.98.54 5.54 1.5 2.55.95 4.66 2.32 2.1 1.37 3.86 3l-3.01 4.76q-.7 1.13-1.83 1.39-1.13.25-2.46-.57-1.28-.74-2.57-1.48t-2.87-1.29q-1.58-.54-3.55-.9-1.96-.35-4.54-.35-4.17 0-7.55 1.41-3.37 1.4-5.75 4.01-2.38 2.62-3.66 6.28-1.29 3.67-1.29 8.19 0 4.84 1.38 8.64 1.39 3.8 3.9 6.44 2.52 2.63 6.07 4.01 3.55 1.39 7.92 1.39 3.12 0 5.57-.66 2.46-.67 4.8-1.8v-10.22h-7.1q-1.01 0-1.58-.56-.56-.57-.56-1.39zm34.94 3.66h18.17q0-1.87-.52-3.53-.53-1.66-1.58-2.9-1.06-1.25-2.67-1.97-1.62-.72-3.77-.72-4.17 0-6.57 2.37-2.4 2.38-3.06 6.75m24.57 5.81h-24.76q.23 3.08 1.09 5.33.85 2.24 2.26 3.7 1.4 1.46 3.33 2.18 1.93.73 4.27.73t4.04-.55 2.96-1.21q1.27-.66 2.23-1.21.95-.54 1.85-.54 1.21 0 1.79.89l2.77 3.51q-1.6 1.88-3.59 3.14-1.98 1.27-4.15 2.03-2.16.76-4.41 1.07-2.24.31-4.34.31-4.18 0-7.76-1.38-3.59-1.38-6.24-4.09-2.66-2.72-4.18-6.71-1.52-4-1.52-9.26 0-4.1 1.33-7.71 1.32-3.6 3.8-6.28 2.48-2.67 6.04-4.23 3.57-1.56 8.06-1.56 3.78 0 6.98 1.21t5.5 3.53 3.61 5.69q1.3 3.38 1.3 7.71 0 2.18-.47 2.94-.46.76-1.79.76m17.82-19.46.67 3.16q1.2-1.21 2.55-2.24 1.35-1.04 2.85-1.76t3.21-1.13q1.72-.41 3.75-.41 3.27 0 5.81 1.11 2.53 1.12 4.23 3.12 1.7 2.01 2.58 4.8.87 2.79.87 6.14v25.47h-9.63v-25.47q0-3.66-1.68-5.67-1.67-2.01-5.11-2.01-2.49 0-4.68 1.13-2.18 1.13-4.13 3.08v28.94h-9.63v-40.01h5.89q1.87 0 2.45 1.75m43.25 13.65h18.18q0-1.87-.53-3.53t-1.58-2.9q-1.05-1.25-2.67-1.97t-3.76-.72q-4.18 0-6.57 2.37-2.4 2.38-3.07 6.75m24.57 5.81h-24.76q.23 3.08 1.09 5.33.86 2.24 2.26 3.7 1.41 1.46 3.34 2.18 1.93.73 4.27.73t4.03-.55q1.7-.55 2.97-1.21t2.22-1.21q.96-.54 1.85-.54 1.21 0 1.8.89l2.77 3.51q-1.6 1.88-3.59 3.14-1.99 1.27-4.15 2.03-2.17.76-4.41 1.07t-4.35.31q-4.17 0-7.76-1.38t-6.24-4.09q-2.65-2.72-4.17-6.71-1.53-4-1.53-9.26 0-4.1 1.33-7.71 1.33-3.6 3.8-6.28 2.48-2.67 6.05-4.23t8.05-1.56q3.78 0 6.98 1.21t5.5 3.53 3.61 5.69q1.31 3.38 1.31 7.71 0 2.18-.47 2.94t-1.8.76m17.98-18.8.59 4.53q1.87-3.59 4.44-5.64 2.58-2.05 6.09-2.05 2.77 0 4.44 1.21l-.62 7.22q-.2.7-.57.99-.37.3-.99.3-.59 0-1.74-.2-1.15-.19-2.24-.19-1.6 0-2.85.46-1.24.47-2.24 1.35-.99.88-1.75 2.12-.76 1.25-1.43 2.85v24.65h-9.63v-40.01h5.66q1.48 0 2.06.52.59.53.78 1.89m41.73 27.26v-6.74q-4.17.19-7.02.72-2.84.53-4.56 1.34-1.72.82-2.46 1.92-.74 1.09-.74 2.38 0 2.53 1.5 3.62t3.92 1.09q2.97 0 5.13-1.07 2.17-1.07 4.23-3.26m-20.36-21.02-1.71-3.08q6.9-6.32 16.61-6.32 3.51 0 6.28 1.16 2.77 1.15 4.68 3.19 1.91 2.05 2.91 4.9.99 2.85.99 6.24v25.27h-4.37q-1.36 0-2.1-.41t-1.17-1.66l-.86-2.88q-1.52 1.36-2.96 2.4-1.45 1.03-3.01 1.73t-3.33 1.07q-1.78.37-3.92.37-2.54 0-4.68-.68-2.15-.68-3.71-2.05-1.56-1.36-2.41-3.39-.86-2.03-.86-4.72 0-1.52.5-3.02.51-1.5 1.66-2.87 1.15-1.36 2.99-2.57 1.83-1.21 4.5-2.11 2.67-.89 6.22-1.46t8.11-.68v-2.34q0-4.02-1.71-5.95-1.72-1.93-4.96-1.93-2.34 0-3.88.55-1.54.54-2.71 1.22-1.17.69-2.12 1.23-.96.55-2.13.55-1.01 0-1.71-.53-.71-.52-1.14-1.23m38.93-26.59h9.63v57.95h-9.63zm106.54 1.56h8.23l-17.51 56.39h-9.47l-12.33-38.53q-.51-1.41-.93-3.43-.24.97-.47 1.83-.24.86-.51 1.6l-12.44 38.53h-9.52l-17.47-56.39h8.78q1.36 0 2.28.64.91.64 1.23 1.73l9.59 33.74q.31 1.25.61 2.71.29 1.46.6 3.06.31-1.64.68-3.08t.8-2.69l11.08-33.74q.31-.89 1.23-1.63.91-.74 2.24-.74h3.08q1.36 0 2.22.66t1.29 1.71l11.04 33.74q.82 2.42 1.48 5.58.51-3.08 1.13-5.58l9.59-33.74q.24-.97 1.19-1.67.96-.7 2.28-.7m34.79 46.05v-6.74q-4.17.19-7.02.72-2.84.53-4.56 1.34-1.72.82-2.46 1.92-.74 1.09-.74 2.38 0 2.53 1.5 3.62t3.92 1.09q2.97 0 5.13-1.07 2.17-1.07 4.23-3.26m-20.36-21.02-1.71-3.08q6.9-6.32 16.61-6.32 3.51 0 6.28 1.16 2.77 1.15 4.68 3.19 1.91 2.05 2.91 4.9.99 2.85.99 6.24v25.27h-4.37q-1.36 0-2.1-.41t-1.17-1.66l-.86-2.88q-1.52 1.36-2.96 2.4-1.45 1.03-3.01 1.73t-3.33 1.07q-1.78.37-3.92.37-2.54 0-4.68-.68-2.15-.68-3.71-2.05-1.56-1.36-2.41-3.39-.86-2.03-.86-4.72 0-1.52.5-3.02.51-1.5 1.66-2.87 1.15-1.36 2.99-2.57 1.83-1.21 4.5-2.11 2.67-.89 6.22-1.46t8.11-.68v-2.34q0-4.02-1.71-5.95-1.72-1.93-4.96-1.93-2.34 0-3.88.55-1.54.54-2.71 1.22-1.17.69-2.12 1.23-.96.55-2.13.55-1.01 0-1.71-.53-.71-.52-1.14-1.23m47.31-6.24.59 4.53q1.87-3.59 4.44-5.64 2.58-2.05 6.09-2.05 2.77 0 4.44 1.21l-.62 7.22q-.2.7-.57.99-.37.3-.99.3-.59 0-1.74-.2-1.15-.19-2.24-.19-1.6 0-2.85.46-1.24.47-2.24 1.35-.99.88-1.75 2.12-.76 1.25-1.43 2.85v24.65h-9.63v-40.01h5.65q1.49 0 2.07.52.59.53.78 1.89m45.71 25.74v-17.94q-1.64-1.99-3.57-2.8-1.93-.82-4.15-.82-2.19 0-3.94.82-1.76.81-3 2.47-1.25 1.66-1.92 4.21-.66 2.56-.66 6.03 0 3.51.57 5.95.56 2.43 1.62 3.98 1.05 1.54 2.57 2.22t3.39.68q3.01 0 5.11-1.25 2.11-1.24 3.98-3.55m0-46.09h9.63v57.95h-5.89q-1.91 0-2.41-1.75l-.82-3.87q-2.42 2.77-5.56 4.49-3.14 1.71-7.31 1.71-3.28 0-6.01-1.36-2.73-1.37-4.7-3.96t-3.04-6.41q-1.07-3.83-1.07-8.74 0-4.45 1.21-8.27 1.2-3.82 3.47-6.63 2.26-2.81 5.42-4.39t7.1-1.58q3.35 0 5.73 1.06 2.38 1.05 4.25 2.85z"/></svg>