<svg xmlns="http://www.w3.org/2000/svg" width="800" height="600" viewBox="0 0 800 600"><rect width="100%" height="100%" fill="#2563eb"/><path fill="#ffffff" d="M220.12 293.44q0 6.44-2.13 11.93-2.12 5.48-6.01 9.49t-9.36 6.26q-5.46 2.25-12.15 2.25-6.64 0-12.11-2.25-5.46-2.25-9.37-6.26t-6.06-9.49q-2.14-5.49-2.14-11.93t2.14-11.93q2.15-5.49 6.06-9.5t9.37-6.25q5.47-2.25 12.11-2.25 4.46 0 8.39 1.03t7.21 2.92q3.28 1.88 5.89 4.57 2.61 2.7 4.43 6.02 1.83 3.32 2.78 7.21t.95 8.18m-11.14 0q0-4.82-1.29-8.65-1.3-3.83-3.69-6.5t-5.81-4.09-7.72-1.42q-4.29 0-7.71 1.42t-5.83 4.09-3.71 6.5-1.3 8.65 1.3 8.65q1.3 3.82 3.71 6.48 2.41 2.65 5.83 4.07 3.42 1.41 7.71 1.41 4.3 0 7.72-1.41 3.42-1.42 5.81-4.07 2.39-2.66 3.69-6.48 1.29-3.83 1.29-8.65m31.63.16h8.14q3 0 5.23-.75 2.22-.75 3.7-2.15 1.48-1.39 2.21-3.4.73-2 .73-4.47 0-2.35-.73-4.26-.73-1.9-2.19-3.23-1.45-1.34-3.68-2.05t-5.27-.71h-8.14zm-10.89-29.44h19.03q5.88 0 10.17 1.37 4.29 1.38 7.09 3.85 2.79 2.47 4.15 5.91 1.35 3.45 1.35 7.54 0 4.25-1.41 7.79-1.42 3.55-4.26 6.1-2.83 2.55-7.1 3.97-4.28 1.42-9.99 1.42h-8.14v20.61h-10.89zm102.14 29.28q0 6.44-2.15 11.82-2.14 5.39-6.03 9.28t-9.36 6.03q-5.47 2.15-12.15 2.15h-22.31v-58.56h22.31q6.68 0 12.15 2.16 5.47 2.17 9.36 6.04t6.03 9.25q2.15 5.39 2.15 11.83m-11.18 0q0-4.82-1.27-8.65-1.28-3.83-3.69-6.48t-5.83-4.07-7.72-1.42h-11.38v41.23h11.38q4.3 0 7.72-1.41 3.42-1.42 5.83-4.07 2.41-2.66 3.69-6.48 1.27-3.83 1.27-8.65m109.84-29.28h8.54l-18.18 58.56h-9.84l-12.8-40.01q-.53-1.46-.97-3.57-.25 1.01-.49 1.91-.24.89-.53 1.66l-12.92 40.01h-9.88l-18.14-58.56h9.11q1.42 0 2.37.67.95.66 1.28 1.8l9.96 35.03q.32 1.3.63 2.81.3 1.52.62 3.18.33-1.7.71-3.2.39-1.49.83-2.79l11.51-35.03q.32-.93 1.27-1.7t2.33-.77h3.2q1.42 0 2.31.69.89.68 1.33 1.78l11.47 35.03q.85 2.51 1.53 5.79.53-3.2 1.18-5.79l9.96-35.03q.25-1.02 1.24-1.74.99-.73 2.37-.73m36.12 47.83v-7.01q-4.33.2-7.29.75-2.95.55-4.74 1.4-1.78.85-2.55 1.98-.77 1.14-.77 2.47 0 2.63 1.56 3.77 1.56 1.13 4.07 1.13 3.08 0 5.33-1.11t4.39-3.38m-21.14-21.83-1.78-3.2q7.17-6.56 17.25-6.56 3.65 0 6.52 1.19 2.88 1.2 4.86 3.32 1.99 2.13 3.02 5.09 1.03 2.95 1.03 6.48v26.24h-4.53q-1.42 0-2.19-.43-.77-.42-1.21-1.72l-.9-2.99q-1.58 1.41-3.07 2.49-1.5 1.07-3.12 1.8t-3.46 1.11q-1.85.39-4.08.39-2.63 0-4.86-.71-2.22-.71-3.84-2.13-1.62-1.41-2.51-3.52t-.89-4.9q0-1.58.52-3.14.53-1.56 1.72-2.98 1.2-1.41 3.1-2.67t4.68-2.19q2.77-.93 6.46-1.52 3.68-.58 8.42-.7v-2.43q0-4.18-1.78-6.18-1.78-2.01-5.14-2.01-2.43 0-4.03.57t-2.82 1.28q-1.21.71-2.2 1.27-1 .57-2.21.57-1.05 0-1.78-.55-.73-.54-1.18-1.27m40.62-8.99h10.05v41.55h-10.05zm11.42-12.11q0 1.29-.52 2.43-.53 1.13-1.4 1.98t-2.04 1.36q-1.18.51-2.52.51-1.29 0-2.45-.51-1.15-.51-2-1.36t-1.36-1.98q-.5-1.14-.5-2.43 0-1.34.5-2.51.51-1.18 1.36-2.03t2-1.36q1.16-.5 2.45-.5 1.34 0 2.52.5 1.17.51 2.04 1.36t1.4 2.03q.52 1.17.52 2.51m22.68 54.31q-5.42 0-8.32-3.06-2.89-3.06-2.89-8.44v-23.21h-4.26q-.81 0-1.37-.53-.57-.52-.57-1.58v-3.97l6.68-1.09 2.11-11.34q.2-.81.77-1.25.56-.45 1.46-.45h5.18v13.08h11.1v7.13h-11.1v22.52q0 1.94.95 3.03.95 1.1 2.61 1.1.93 0 1.56-.22.63-.23 1.1-.47.46-.24.83-.47.36-.22.73-.22.44 0 .72.22.29.23.61.67l3 4.86q-2.19 1.82-5.02 2.76-2.84.93-5.88.93m16.61-42.2h10.04v41.55h-10.04zm11.42-12.11q0 1.29-.53 2.43-.52 1.13-1.39 1.98t-2.05 1.36q-1.17.51-2.51.51-1.3 0-2.45-.51t-2-1.36q-.86-.85-1.36-1.98-.51-1.14-.51-2.43 0-1.34.51-2.51.5-1.18 1.36-2.03.85-.85 2-1.36 1.15-.5 2.45-.5 1.34 0 2.51.5 1.18.51 2.05 1.36t1.39 2.03q.53 1.17.53 2.51m17.5 13.93.68 3.28q1.26-1.26 2.66-2.33 1.39-1.07 2.95-1.82t3.35-1.18q1.78-.42 3.88-.42 3.41 0 6.04 1.15 2.63 1.16 4.39 3.24 1.76 2.09 2.68 4.98.91 2.9.91 6.38v26.45h-10.01v-26.45q0-3.8-1.74-5.89t-5.3-2.09q-2.6 0-4.86 1.18-2.27 1.17-4.3 3.2v30.05h-10v-41.55h6.11q1.95 0 2.56 1.82m52.2 17.94q1.86 0 3.24-.51 1.38-.5 2.29-1.39t1.38-2.15q.46-1.25.46-2.75 0-3.08-1.84-4.88-1.84-1.81-5.53-1.81-3.68 0-5.53 1.81-1.84 1.8-1.84 4.88 0 1.45.47 2.71.46 1.26 1.37 2.17t2.31 1.41q1.4.51 3.22.51m11.3 23.65q0-1.21-.73-1.98t-1.98-1.2q-1.26-.42-2.94-.62-1.68-.21-3.56-.31-1.89-.1-3.89-.18-2.01-.08-3.91-.32-1.66.93-2.69 2.18-1.04 1.26-1.04 2.92 0 1.09.55 2.04.55.96 1.74 1.64 1.2.69 3.1 1.08 1.9.38 4.66.38 2.79 0 4.82-.42 2.02-.43 3.34-1.18t1.92-1.78q.61-1.03.61-2.25m-1.98-42h11.94v3.73q0 1.78-2.14 2.19l-3.73.69q.85 2.14.85 4.69 0 3.08-1.23 5.57-1.24 2.49-3.43 4.23-2.18 1.75-5.16 2.7t-6.42.95q-1.21 0-2.35-.12-1.13-.12-2.23-.33-1.94 1.18-1.94 2.64 0 1.25 1.15 1.84 1.16.59 3.06.83 1.91.24 4.34.3t4.98.27q2.55.2 4.98.71 2.43.5 4.33 1.6 1.91 1.09 3.06 2.97 1.15 1.89 1.15 4.84 0 2.76-1.35 5.35-1.36 2.59-3.93 4.62-2.57 2.02-6.32 3.26-3.75 1.23-8.52 1.23-4.7 0-8.19-.91-3.48-.91-5.79-2.43t-3.44-3.5q-1.13-1.99-1.13-4.13 0-2.92 1.76-4.89 1.76-1.96 4.84-3.13-1.66-.85-2.63-2.27-.98-1.42-.98-3.73 0-.93.35-1.92.34-.99 1.01-1.97.67-.97 1.68-1.84t2.39-1.56q-3.16-1.7-4.96-4.53-1.8-2.84-1.8-6.65 0-3.07 1.23-5.56 1.24-2.5 3.45-4.26 2.2-1.76 5.22-2.69t6.58-.93q2.67 0 5.02.54 2.35.55 4.3 1.6"/></svg>