<svg xmlns="http://www.w3.org/2000/svg" width="800" height="600" viewBox="0 0 800 600"><rect width="100%" height="100%" fill="#2563eb"/><path fill="#ffffff" d="M170.47 312.87h9.93q2.74 0 4.6-.66t2.97-1.75q1.12-1.1 1.61-2.56t.49-3.1q0-1.72-.55-3.09-.54-1.36-1.71-2.33t-3.01-1.48q-1.85-.51-4.44-.51h-9.89zm8.36-37.53h-8.36v15.26h7.81q5.04 0 7.61-1.82 2.57-1.83 2.57-5.81 0-4.12-2.33-5.87-2.34-1.76-7.3-1.76m-18.18-7.59h18.18q5.18 0 8.87.99 3.68.98 6.04 2.81 2.35 1.82 3.45 4.41 1.09 2.6 1.09 5.84 0 1.87-.54 3.56-.55 1.7-1.7 3.18t-2.92 2.68q-1.77 1.21-4.22 2.04 10.88 2.45 10.88 11.76 0 3.36-1.28 6.2-1.28 2.85-3.72 4.91-2.45 2.06-6.02 3.23-3.58 1.17-8.18 1.17h-19.93zm46.94 15.33h9.05v37.45h-9.05zm10.29-10.91q0 1.17-.47 2.19-.48 1.02-1.26 1.79-.78.76-1.84 1.22t-2.27.46q-1.16 0-2.2-.46t-1.81-1.22q-.77-.77-1.22-1.79-.46-1.02-.46-2.19 0-1.21.46-2.27.45-1.05 1.22-1.82t1.81-1.22q1.04-.46 2.2-.46 1.21 0 2.27.46 1.06.45 1.84 1.22t1.26 1.82q.47 1.06.47 2.27m8.07-5.88h9.02v54.24h-9.02zm18.14 0h9.02v54.24h-9.02zm18.32 16.79h9.06v37.45h-9.06zm10.3-10.91q0 1.17-.48 2.19-.47 1.02-1.26 1.79-.78.76-1.84 1.22t-2.26.46q-1.17 0-2.21-.46t-1.81-1.22q-.76-.77-1.22-1.79t-.46-2.19q0-1.21.46-2.27.46-1.05 1.22-1.82.77-.77 1.81-1.22 1.04-.46 2.21-.46 1.2 0 2.26.46 1.06.45 1.84 1.22.79.77 1.26 1.82.48 1.06.48 2.27m15.76 12.55.63 2.96q1.13-1.13 2.39-2.1t2.66-1.64q1.41-.68 3.01-1.06 1.61-.38 3.51-.38 3.06 0 5.43 1.04 2.38 1.04 3.96 2.92 1.59 1.88 2.41 4.49t.82 5.75v23.83h-9.01V296.7q0-3.44-1.57-5.32-1.57-1.87-4.78-1.87-2.34 0-4.38 1.05-2.05 1.06-3.87 2.89v27.08h-9.02v-37.45h5.52q1.75 0 2.29 1.64m47.05 16.17q1.68 0 2.92-.45 1.24-.46 2.07-1.26.82-.81 1.24-1.94t.42-2.48q0-2.77-1.66-4.4-1.67-1.62-4.99-1.62t-4.98 1.62q-1.66 1.63-1.66 4.4 0 1.32.42 2.45t1.24 1.95 2.08 1.28q1.26.45 2.9.45m10.19 21.32q0-1.1-.66-1.79t-1.79-1.08q-1.13-.38-2.64-.56-1.52-.18-3.22-.28-1.69-.09-3.5-.16t-3.52-.29q-1.5.84-2.43 1.97t-.93 2.63q0 .98.49 1.84t1.57 1.48 2.79.97q1.72.34 4.2.34 2.52 0 4.34-.38 1.83-.38 3.02-1.06 1.18-.67 1.73-1.61.55-.93.55-2.02m-1.79-37.85h10.77v3.36q0 1.6-1.94 1.97l-3.36.62q.77 1.93.77 4.23 0 2.78-1.11 5.02-1.12 2.25-3.09 3.82-1.97 1.56-4.65 2.42t-5.79.86q-1.09 0-2.11-.11-1.03-.11-2.01-.29-1.75 1.06-1.75 2.37 0 1.13 1.04 1.66t2.75.75q1.72.22 3.91.27 2.19.06 4.49.24t4.49.64 3.9 1.44q1.72.99 2.76 2.68 1.04 1.7 1.04 4.37 0 2.48-1.22 4.81-1.23 2.34-3.54 4.17-2.32 1.82-5.7 2.93-3.37 1.12-7.68 1.12-4.24 0-7.37-.82-3.14-.83-5.22-2.19-2.08-1.37-3.11-3.16-1.02-1.79-1.02-3.73 0-2.62 1.59-4.39t4.36-2.83q-1.5-.77-2.37-2.05-.88-1.27-.88-3.35 0-.84.31-1.74.31-.89.92-1.77.6-.87 1.51-1.66.91-.78 2.15-1.4-2.84-1.54-4.47-4.09-1.62-2.56-1.62-5.99 0-2.77 1.11-5.02 1.11-2.24 3.1-3.83t4.71-2.43 5.93-.84q2.41 0 4.53.5 2.12.49 3.87 1.44m71.87 23.72q.8 0 1.42.62l3.87 4.2q-3.21 3.98-7.9 6.1-4.69 2.11-11.26 2.11-5.88 0-10.57-2-4.69-2.01-8.01-5.59-3.32-3.57-5.09-8.54-1.77-4.96-1.77-10.84 0-5.95 1.89-10.89 1.9-4.95 5.35-8.53 3.45-3.57 8.23-5.56t10.59-1.99q5.76 0 10.24 1.9 4.47 1.89 7.61 4.96l-3.29 4.56q-.29.44-.75.77-.45.33-1.26.33-.54 0-1.13-.31-.58-.31-1.28-.77-.69-.46-1.6-1-.91-.55-2.12-1.01-1.2-.45-2.79-.76t-3.67-.31q-3.54 0-6.48 1.25-2.94 1.26-5.05 3.65-2.12 2.4-3.29 5.84-1.17 3.45-1.17 7.87 0 4.45 1.26 7.92t3.42 5.84q2.15 2.37 5.07 3.63t6.28 1.26q2 0 3.63-.22 1.62-.22 2.99-.69 1.37-.48 2.59-1.22 1.23-.75 2.43-1.85.37-.32.77-.53.4-.2.84-.2m27.19-25.58q4.16 0 7.57 1.35 3.42 1.35 5.84 3.83 2.43 2.48 3.74 6.06 1.32 3.58 1.32 7.99 0 4.46-1.32 8.03-1.31 3.58-3.74 6.1-2.42 2.52-5.84 3.87-3.41 1.35-7.57 1.35-4.2 0-7.63-1.35t-5.86-3.87q-2.42-2.52-3.76-6.1-1.33-3.57-1.33-8.03 0-4.41 1.33-7.99 1.34-3.58 3.76-6.06 2.43-2.48 5.86-3.83t7.63-1.35m0 31.64q4.67 0 6.92-3.14 2.24-3.14 2.24-9.19 0-6.06-2.24-9.24-2.25-3.17-6.92-3.17-4.75 0-7.03 3.19t-2.28 9.22q0 6.02 2.28 9.18 2.28 3.15 7.03 3.15m48.62-31.06h9.01v37.45h-5.51q-1.79 0-2.26-1.64l-.62-3q-2.3 2.34-5.08 3.78-2.77 1.44-6.53 1.44-3.07 0-5.42-1.04t-3.96-2.93q-1.61-1.9-2.43-4.51t-.82-5.75v-23.8H477v23.8q0 3.43 1.59 5.31 1.58 1.88 4.76 1.88 2.33 0 4.38-1.04 2.04-1.04 3.87-2.87zm25.73 1.64.62 2.96q1.13-1.13 2.39-2.1t2.67-1.64q1.4-.68 3.01-1.06 1.6-.38 3.5-.38 3.07 0 5.44 1.04t3.96 2.92 2.41 4.49.82 5.75v23.83h-9.02V296.7q0-3.44-1.57-5.32-1.56-1.87-4.78-1.87-2.33 0-4.38 1.05-2.04 1.06-3.87 2.89v27.08h-9.01v-37.45h5.51q1.75 0 2.3 1.64m45.84 36.39q-4.89 0-7.5-2.75-2.61-2.76-2.61-7.61v-20.92h-3.83q-.73 0-1.24-.47-.51-.48-.51-1.42v-3.58l6.02-.99 1.9-10.22q.18-.73.69-1.13t1.32-.4h4.67v11.79h10v6.42h-10v20.3q0 1.75.86 2.74.85.98 2.35.98.84 0 1.41-.2.56-.2.98-.42t.75-.42.66-.2q.4 0 .65.2.26.2.55.6l2.7 4.38q-1.97 1.65-4.52 2.48-2.56.84-5.3.84m21.79-23.61h17.01q0-1.75-.49-3.3-.49-1.56-1.48-2.72-.98-1.17-2.5-1.85-1.51-.67-3.52-.67-3.91 0-6.15 2.22-2.25 2.23-2.87 6.32m23 5.44h-23.18q.22 2.88 1.02 4.98.81 2.1 2.12 3.47t3.12 2.04q1.81.68 4 .68t3.78-.51q1.58-.52 2.77-1.14t2.08-1.13 1.73-.51q1.14 0 1.68.84l2.59 3.29q-1.49 1.75-3.35 2.93-1.86 1.19-3.89 1.9t-4.12 1.01q-2.1.29-4.07.29-3.91 0-7.27-1.3-3.36-1.29-5.84-3.83t-3.9-6.28q-1.43-3.74-1.43-8.67 0-3.83 1.24-7.21 1.24-3.37 3.56-5.87t5.66-3.96 7.54-1.46q3.54 0 6.53 1.13t5.15 3.3q2.15 2.17 3.37 5.33 1.23 3.16 1.23 7.21 0 2.04-.44 2.76-.44.71-1.68.71m16.83-17.6.54 4.24q1.76-3.36 4.16-5.28 2.41-1.91 5.7-1.91 2.59 0 4.16 1.13l-.58 6.75q-.19.66-.53.93-.35.28-.93.28-.55 0-1.63-.19-1.08-.18-2.1-.18-1.49 0-2.66.44t-2.1 1.26-1.64 1.99q-.72 1.17-1.34 2.66v23.07h-9.01v-37.45h5.29q1.39 0 1.94.49.54.5.73 1.77"/></svg>