<svg xmlns="http://www.w3.org/2000/svg" width="800" height="600" viewBox="0 0 800 600"><rect width="100%" height="100%" fill="#2563eb"/><path fill="#ffffff" d="M229.53 257.28h9.95v70.85h-11.62v-45.77q0-2.74.3-5.93l-21.42 40.23q-1.52 2.89-4.65 2.89h-1.86q-3.14 0-4.66-2.89l-21.66-40.37q.15 1.61.25 3.18t.1 2.89v45.77h-11.62v-70.85h9.95q.88 0 1.52.04.64.05 1.15.25.52.2.93.64.42.44.81 1.17l21.22 39.35q.83 1.57 1.54 3.23.71 1.67 1.4 3.43.68-1.81 1.42-3.5.73-1.69 1.57-3.26l20.92-39.25q.39-.73.83-1.17t.96-.64q.51-.2 1.15-.25.64-.04 1.52-.04m50.37 57.86v-8.47q-5.24.24-8.82.9-3.58.67-5.73 1.69-2.16 1.03-3.09 2.41-.93 1.37-.93 2.99 0 3.18 1.89 4.55 1.88 1.37 4.92 1.37 3.72 0 6.44-1.34 2.72-1.35 5.32-4.1m-25.58-26.41-2.15-3.87q8.67-7.94 20.87-7.94 4.41 0 7.89 1.45t5.88 4.02 3.65 6.15q1.25 3.57 1.25 7.84v31.75h-5.49q-1.71 0-2.64-.51-.94-.52-1.47-2.09l-1.08-3.62q-1.91 1.71-3.73 3.01-1.81 1.3-3.77 2.18t-4.19 1.35q-2.23.46-4.92.46-3.19 0-5.88-.85-2.7-.86-4.66-2.58-1.96-1.71-3.04-4.26-1.07-2.55-1.07-5.93 0-1.91.63-3.8.64-1.88 2.09-3.6 1.44-1.71 3.74-3.23 2.31-1.52 5.66-2.65 3.36-1.12 7.82-1.83 4.46-.72 10.19-.86v-2.94q0-5.05-2.16-7.47-2.15-2.43-6.22-2.43-2.94 0-4.87.69-1.94.68-3.41 1.54t-2.67 1.54q-1.2.69-2.67.69-1.27 0-2.16-.66-.88-.66-1.42-1.55m49.15-10.87h12.15v50.27h-12.15zm13.82-14.65q0 1.56-.64 2.94-.64 1.37-1.69 2.4t-2.47 1.64q-1.43.61-3.04.61-1.57 0-2.97-.61-1.39-.61-2.42-1.64t-1.64-2.4q-.62-1.38-.62-2.94 0-1.62.62-3.04.61-1.42 1.64-2.45t2.42-1.64q1.4-.62 2.97-.62 1.61 0 3.04.62 1.42.61 2.47 1.64t1.69 2.45.64 3.04m21.17 16.85.83 3.97q1.52-1.52 3.21-2.82t3.58-2.2q1.88-.91 4.04-1.42 2.15-.52 4.7-.52 4.12 0 7.3 1.4 3.19 1.39 5.32 3.92 2.13 2.52 3.23 6.03 1.11 3.5 1.11 7.71v32h-12.11v-32q0-4.6-2.1-7.13-2.11-2.52-6.42-2.52-3.14 0-5.88 1.42-2.75 1.42-5.2 3.87v36.36h-12.1v-50.27h7.4q2.35 0 3.09 2.2m115.19-12.3H422.2v19.65h24.79v10.14H422.2v20.04h31.45v10.54h-44.68v-70.85h44.68zm20.24 12.3.83 3.97q1.52-1.52 3.21-2.82t3.58-2.2q1.89-.91 4.04-1.42 2.16-.52 4.71-.52 4.11 0 7.3 1.4 3.18 1.39 5.32 3.92 2.13 2.52 3.23 6.03 1.1 3.5 1.1 7.71v32h-12.1v-32q0-4.6-2.11-7.13-2.11-2.52-6.42-2.52-3.13 0-5.88 1.42-2.74 1.42-5.19 3.87v36.36h-12.1v-50.27h7.39q2.36 0 3.09 2.2m61.55 48.85q-6.57 0-10.07-3.7-3.51-3.7-3.51-10.21v-28.08h-5.14q-.98 0-1.67-.64-.68-.63-.68-1.91v-4.8l8.08-1.32 2.55-13.72q.24-.98.93-1.52t1.76-.54h6.28v15.83h13.42v8.62h-13.42v27.25q0 2.35 1.15 3.67t3.16 1.32q1.12 0 1.88-.27t1.33-.56q.56-.29 1-.56t.88-.27q.54 0 .89.27.34.27.73.81l3.63 5.87q-2.65 2.21-6.08 3.34-3.43 1.12-7.1 1.12m30.38-48.02.73 5.69q2.35-4.51 5.59-7.08 3.23-2.58 7.64-2.58 3.48 0 5.59 1.52l-.79 9.07q-.24.88-.71 1.25-.46.37-1.25.37-.73 0-2.18-.25-1.44-.24-2.82-.24-2 0-3.57.58-1.57.59-2.82 1.69-1.25 1.11-2.2 2.67-.96 1.57-1.79 3.58v30.97h-12.11v-50.27h7.11q1.86 0 2.6.66.73.66.98 2.37m61.83-3.03h9.71l-27.4 64.09q-.53 1.27-1.39 1.93t-2.62.66h-9.02l9.41-20.18-20.34-46.5h10.64q1.42 0 2.23.68.8.69 1.2 1.57l10.68 26.07q.54 1.32.91 2.64.36 1.33.71 2.7.44-1.37.88-2.72t.98-2.67l10.09-26.02q.39-.98 1.3-1.62.91-.63 2.03-.63"/></svg>