<svg xmlns="http://www.w3.org/2000/svg" width="800" height="600" viewBox="0 0 800 600"><rect width="100%" height="100%" fill="#2563eb"/><path fill="#ffffff" d="M174.95 317.5h28.61v10.99h-41.93v-71.58h13.32zm63.01-2.13v-8.56q-5.29.25-8.91.91-3.61.67-5.79 1.71t-3.12 2.43q-.94 1.38-.94 3.02 0 3.21 1.91 4.6 1.9 1.39 4.97 1.39 3.76 0 6.51-1.36 2.75-1.37 5.37-4.14m-25.84-26.68-2.18-3.91q8.77-8.02 21.09-8.02 4.46 0 7.97 1.46 3.52 1.46 5.94 4.06 2.43 2.6 3.69 6.21 1.26 3.62 1.26 7.92v32.08h-5.54q-1.74 0-2.68-.52t-1.48-2.1l-1.09-3.67q-1.93 1.74-3.76 3.05t-3.81 2.2-4.24 1.36q-2.25.47-4.97.47-3.22 0-5.94-.86-2.72-.87-4.7-2.6-1.98-1.74-3.07-4.31t-1.09-5.99q0-1.93.64-3.84.65-1.9 2.11-3.63 1.46-1.74 3.78-3.27 2.33-1.54 5.72-2.67 3.39-1.14 7.9-1.86 4.5-.72 10.29-.87v-2.97q0-5.09-2.18-7.54-2.17-2.46-6.28-2.46-2.97 0-4.93.7-1.95.69-3.44 1.56-1.48.86-2.7 1.56-1.21.69-2.69.69-1.29 0-2.18-.67t-1.44-1.56m61.48 3.86v22.77q2.08 2.53 4.53 3.57t5.17 1.04q2.83 0 5.08-1.02 2.25-1.01 3.83-3.17 1.59-2.15 2.43-5.49t.84-8q0-8.36-2.77-12.1t-7.97-3.74q-3.52 0-6.14 1.61t-5 4.53m0-37.62v29.01q3.07-3.22 6.81-5.12 3.74-1.91 8.54-1.91 4.4 0 7.94 1.73 3.54 1.74 6.04 4.98t3.84 7.84q1.33 4.61 1.33 10.35 0 6.19-1.53 11.24-1.54 5.04-4.38 8.63-2.85 3.59-6.86 5.57t-8.91 1.98q-2.37 0-4.3-.47t-3.57-1.31q-1.63-.84-2.99-2.05-1.36-1.22-2.6-2.7l-.55 3.41q-.29 1.29-1.01 1.84-.72.54-1.96.54h-8.06v-73.56zm66.43 21.98q5.64 0 10.27 1.83t7.92 5.2 5.08 8.22q1.78 4.85 1.78 10.84 0 6.04-1.78 10.89-1.79 4.85-5.08 8.26-3.29 3.42-7.92 5.25t-10.27 1.83q-5.69 0-10.34-1.83-4.66-1.83-7.95-5.25-3.29-3.41-5.1-8.26-1.8-4.85-1.8-10.89 0-5.99 1.8-10.84 1.81-4.85 5.1-8.22t7.95-5.2q4.65-1.83 10.34-1.83m0 42.92q6.34 0 9.38-4.26 3.05-4.26 3.05-12.47 0-8.22-3.05-12.53-3.04-4.3-9.38-4.3-6.43 0-9.53 4.33-3.09 4.33-3.09 12.5 0 8.16 3.09 12.45 3.1 4.28 9.53 4.28m45.19-39.06.75 5.74q2.37-4.55 5.64-7.15t7.72-2.6q3.52 0 5.64 1.54l-.79 9.15q-.24.9-.71 1.27-.48.37-1.27.37-.74 0-2.2-.25t-2.85-.25q-2.03 0-3.61.6-1.58.59-2.85 1.7-1.26 1.12-2.22 2.7-.97 1.59-1.81 3.62v31.28h-12.23V277.7h7.18q1.88 0 2.62.67.75.67.99 2.4m52.97 34.6v-8.56q-5.3.25-8.91.91-3.61.67-5.79 1.71t-3.12 2.43q-.94 1.38-.94 3.02 0 3.21 1.9 4.6 1.91 1.39 4.98 1.39 3.76 0 6.51-1.36 2.75-1.37 5.37-4.14m-25.84-26.68-2.18-3.91q8.76-8.02 21.09-8.02 4.45 0 7.97 1.46 3.51 1.46 5.94 4.06 2.42 2.6 3.69 6.21 1.26 3.62 1.26 7.92v32.08h-5.55q-1.73 0-2.67-.52t-1.48-2.1l-1.09-3.67q-1.93 1.74-3.76 3.05-1.84 1.31-3.82 2.2t-4.23 1.36-4.97.47q-3.22 0-5.94-.86-2.73-.87-4.71-2.6-1.98-1.74-3.06-4.31-1.09-2.57-1.09-5.99 0-1.93.64-3.84.64-1.9 2.1-3.63 1.46-1.74 3.79-3.27 2.33-1.54 5.72-2.67 3.39-1.14 7.89-1.86 4.51-.72 10.3-.87v-2.97q0-5.09-2.18-7.54-2.18-2.46-6.29-2.46-2.97 0-4.92.7-1.96.69-3.44 1.56l-2.7 1.56q-1.21.69-2.7.69-1.28 0-2.17-.67-.9-.67-1.44-1.56m66.18 40.59q-6.63 0-10.17-3.74-3.54-3.73-3.54-10.32v-28.36h-5.2q-.99 0-1.68-.64-.69-.65-.69-1.93v-4.85l8.16-1.34 2.58-13.86q.25-.99.94-1.54.69-.54 1.78-.54h6.34v15.99h13.56v8.71h-13.56v27.52q0 2.38 1.16 3.71 1.16 1.34 3.19 1.34 1.14 0 1.91-.27t1.34-.57q.56-.3 1.01-.57t.89-.27q.55 0 .89.27.35.27.74.82l3.67 5.94q-2.68 2.22-6.14 3.36-3.47 1.14-7.18 1.14m42.37-52.37q5.65 0 10.28 1.83 4.62 1.83 7.92 5.2 3.29 3.37 5.07 8.22t1.78 10.84q0 6.04-1.78 10.89t-5.07 8.26q-3.3 3.42-7.92 5.25-4.63 1.83-10.28 1.83-5.69 0-10.34-1.83t-7.95-5.25q-3.29-3.41-5.09-8.26-1.81-4.85-1.81-10.89 0-5.99 1.81-10.84 1.8-4.85 5.09-8.22 3.3-3.37 7.95-5.2t10.34-1.83m0 42.92q6.34 0 9.38-4.26 3.05-4.26 3.05-12.47 0-8.22-3.05-12.53-3.04-4.3-9.38-4.3-6.43 0-9.52 4.33-3.1 4.33-3.1 12.5 0 8.16 3.1 12.45 3.09 4.28 9.52 4.28m45.2-39.06.74 5.74q2.38-4.55 5.64-7.15 3.27-2.6 7.72-2.6 3.52 0 5.65 1.54l-.79 9.15q-.25.9-.72 1.27t-1.26.37q-.75 0-2.21-.25t-2.84-.25q-2.03 0-3.62.6-1.58.59-2.84 1.7-1.27 1.12-2.23 2.7-.97 1.59-1.81 3.62v31.28h-12.22V277.7h7.17q1.88 0 2.63.67.74.67.99 2.4m62.47-3.07h9.8l-27.67 64.75q-.55 1.29-1.41 1.95-.87.67-2.65.67h-9.11l9.5-20.39-20.54-46.98h10.74q1.44 0 2.26.7.81.69 1.21 1.58l10.79 26.33q.54 1.34.91 2.68.38 1.33.72 2.72l.89-2.75q.45-1.36.99-2.7l10.2-26.28q.4-.99 1.31-1.63.92-.65 2.06-.65"/></svg>