<svg xmlns="http://www.w3.org/2000/svg" width="800" height="600" viewBox="0 0 800 600"><rect width="100%" height="100%" fill="#2563eb"/><path fill="#ffffff" d="M237.56 263.71h8.65L227.8 323h-9.96l-12.96-40.51q-.53-1.47-.98-3.61-.25 1.03-.49 1.93-.25.9-.53 1.68L189.8 323h-10.01l-18.37-59.29h9.23q1.43 0 2.4.68.96.68 1.29 1.82l10.09 35.47q.32 1.31.63 2.85t.64 3.22q.32-1.72.71-3.24t.84-2.83l11.65-35.47q.33-.94 1.29-1.72t2.36-.78h3.24q1.43 0 2.33.7.91.7 1.36 1.8l11.6 35.47q.86 2.54 1.56 5.86.53-3.24 1.19-5.86l10.08-35.47q.25-1.02 1.25-1.76 1.01-.74 2.4-.74m36.57 48.42v-7.09q-4.38.21-7.38.76-2.99.55-4.79 1.41-1.81.87-2.59 2.01-.78 1.15-.78 2.5 0 2.67 1.58 3.82t4.12 1.15q3.12 0 5.4-1.13 2.27-1.13 4.44-3.43m-21.4-22.09-1.8-3.24q7.25-6.64 17.46-6.64 3.69 0 6.6 1.2 2.92 1.21 4.92 3.37 2.01 2.15 3.06 5.14 1.04 2.99 1.04 6.56V323h-4.59q-1.43 0-2.21-.43t-1.23-1.74l-.9-3.04q-1.6 1.44-3.12 2.52-1.52 1.09-3.16 1.83t-3.5 1.13q-1.87.39-4.12.39-2.67 0-4.92-.72-2.26-.72-3.9-2.15-1.64-1.44-2.54-3.57t-.9-4.96q0-1.6.53-3.18t1.74-3.01q1.21-1.44 3.14-2.71t4.74-2.21q2.8-.95 6.54-1.54 3.73-.59 8.52-.72v-2.46q0-4.22-1.8-6.25t-5.21-2.03q-2.46 0-4.08.57-1.62.58-2.85 1.3-1.23.71-2.23 1.29-1.01.57-2.24.57-1.06 0-1.8-.55-.74-.56-1.19-1.29m41.12-9.11h10.17V323h-10.17zm11.57-12.26q0 1.32-.54 2.46-.53 1.15-1.41 2.01t-2.07 1.38q-1.19.51-2.54.51-1.32 0-2.48-.51-1.17-.52-2.03-1.38t-1.38-2.01q-.51-1.14-.51-2.46 0-1.35.51-2.54.52-1.19 1.38-2.05t2.03-1.37q1.16-.51 2.48-.51 1.35 0 2.54.51t2.07 1.37 1.41 2.05q.54 1.19.54 2.54m22.96 54.99q-5.5 0-8.43-3.1t-2.93-8.55v-23.49h-4.31q-.82 0-1.39-.53-.57-.54-.57-1.6v-4.02l6.76-1.11 2.13-11.48q.21-.82.78-1.27.58-.45 1.48-.45h5.25v13.24h11.23v7.22h-11.23v22.79q0 1.97.96 3.08t2.64 1.11q.95 0 1.58-.23.64-.22 1.11-.47t.84-.47q.37-.23.74-.23.45 0 .74.23.28.22.61.67l3.04 4.92q-2.22 1.85-5.09 2.79-2.87.95-5.94.95m16.81-42.73h10.16V323h-10.16zm11.56-12.26q0 1.32-.53 2.46-.54 1.15-1.42 2.01t-2.07 1.38q-1.19.51-2.54.51-1.31 0-2.48-.51-1.17-.52-2.03-1.38t-1.37-2.01q-.52-1.14-.52-2.46 0-1.35.52-2.54.51-1.19 1.37-2.05t2.03-1.37 2.48-.51q1.35 0 2.54.51t2.07 1.37 1.42 2.05q.53 1.19.53 2.54m17.71 14.11.7 3.32q1.27-1.27 2.68-2.36 1.42-1.08 3-1.84 1.57-.76 3.38-1.19 1.8-.43 3.93-.43 3.45 0 6.11 1.17 2.67 1.16 4.45 3.28 1.79 2.11 2.71 5.04t.92 6.46V323h-10.13v-26.77q0-3.86-1.76-5.97t-5.37-2.11q-2.62 0-4.92 1.19t-4.35 3.24V323h-10.12v-42.07h6.19q1.97 0 2.58 1.85m52.85 18.16q1.89 0 3.28-.51t2.32-1.41q.92-.91 1.39-2.18t.47-2.79q0-3.11-1.86-4.94-1.87-1.82-5.6-1.82t-5.6 1.82q-1.86 1.83-1.86 4.94 0 1.48.47 2.75t1.39 2.19q.93.93 2.34 1.44t3.26.51m11.44 23.95q0-1.23-.74-2.01t-2.01-1.21-2.97-.64q-1.7-.2-3.61-.31-1.91-.1-3.93-.18-2.03-.08-3.96-.33-1.68.95-2.73 2.22-1.04 1.27-1.04 2.95 0 1.11.55 2.07t1.76 1.66 3.14 1.09q1.93.38 4.71.38 2.83 0 4.88-.43t3.39-1.18q1.33-.76 1.94-1.81.62-1.04.62-2.27m-2.01-42.52h12.09v3.77q0 1.81-2.17 2.21l-3.77.7q.86 2.17.86 4.76 0 3.11-1.25 5.64-1.25 2.52-3.46 4.28-2.22 1.76-5.23 2.73-3.02.96-6.5.96-1.23 0-2.38-.12-1.15-.13-2.25-.33-1.97 1.19-1.97 2.66 0 1.27 1.17 1.87 1.17.59 3.09.84 1.93.25 4.39.31t5.04.26q2.59.21 5.05.72t4.38 1.62q1.93 1.11 3.1 3.01 1.17 1.91 1.17 4.9 0 2.79-1.38 5.42-1.37 2.62-3.97 4.67-2.61 2.05-6.4 3.3t-8.63 1.25q-4.76 0-8.28-.92-3.53-.92-5.87-2.46-2.33-1.54-3.48-3.55t-1.15-4.18q0-2.95 1.79-4.94 1.78-1.99 4.89-3.18-1.68-.86-2.66-2.29-.98-1.44-.98-3.78 0-.94.34-1.94.35-1.01 1.03-1.99.68-.99 1.7-1.87 1.03-.88 2.42-1.58-3.2-1.72-5.02-4.59-1.83-2.87-1.83-6.72 0-3.12 1.25-5.64t3.49-4.3q2.23-1.79 5.29-2.73 3.05-.94 6.66-.94 2.71 0 5.08.55 2.38.55 4.35 1.62m52.48 18.24h18.86l-7.22-19.72q-.53-1.31-1.1-3.11-.58-1.81-1.15-3.9-.53 2.09-1.11 3.92-.57 1.82-1.11 3.18zm15.05-36.9L527.55 323h-8.52q-1.44 0-2.34-.72t-1.35-1.78l-4.43-12.1h-24.56l-4.43 12.1q-.33.94-1.27 1.72t-2.34.78h-8.61l23.33-59.29zm36.77 19.77.62 4.75q1.97-3.77 4.67-5.92 2.71-2.15 6.4-2.15 2.91 0 4.67 1.27l-.65 7.58q-.21.74-.6 1.05-.39.3-1.04.3-.62 0-1.83-.2-1.21-.21-2.36-.21-1.68 0-2.99.5-1.31.49-2.36 1.41-1.04.92-1.84 2.23-.8 1.32-1.5 3V323h-10.12v-42.07h5.94q1.56 0 2.17.56.62.55.82 1.99m29.65 13.65h19.1q0-1.97-.55-3.71t-1.66-3.06q-1.11-1.31-2.81-2.07t-3.96-.76q-4.38 0-6.9 2.51-2.53 2.5-3.22 7.09m25.83 6.11h-26.04q.25 3.24 1.15 5.59.9 2.36 2.38 3.9 1.47 1.54 3.5 2.3 2.03.75 4.49.75t4.25-.57q1.78-.57 3.11-1.27t2.34-1.27q1-.58 1.95-.58 1.27 0 1.88.95l2.91 3.69q-1.68 1.96-3.77 3.3-2.09 1.33-4.36 2.13-2.28.8-4.64 1.13-2.36.32-4.57.32-4.39 0-8.16-1.45-3.77-1.46-6.56-4.31t-4.39-7.05q-1.59-4.2-1.59-9.74 0-4.3 1.39-8.09 1.39-3.8 4-6.6 2.6-2.81 6.35-4.45t8.47-1.64q3.98 0 7.34 1.27t5.78 3.71 3.79 5.99q1.37 3.54 1.37 8.09 0 2.3-.49 3.1t-1.88.8m32.18 8.89v-7.09q-4.39.21-7.38.76t-4.8 1.41q-1.8.87-2.58 2.01-.78 1.15-.78 2.5 0 2.67 1.58 3.82t4.12 1.15q3.12 0 5.39-1.13 2.28-1.13 4.45-3.43m-21.4-22.09-1.8-3.24q7.25-6.64 17.46-6.64 3.69 0 6.6 1.2 2.91 1.21 4.92 3.37 2.01 2.15 3.06 5.14 1.04 2.99 1.04 6.56V323h-4.59q-1.43 0-2.21-.43t-1.23-1.74l-.91-3.04q-1.59 1.44-3.11 2.52-1.52 1.09-3.16 1.83t-3.5 1.13q-1.87.39-4.12.39-2.67 0-4.92-.72-2.26-.72-3.9-2.15-1.64-1.44-2.54-3.57t-.9-4.96q0-1.6.53-3.18t1.74-3.01q1.21-1.44 3.14-2.71t4.73-2.21q2.81-.95 6.54-1.54t8.53-.72v-2.46q0-4.22-1.8-6.25-1.81-2.03-5.21-2.03-2.46 0-4.08.57-1.62.58-2.85 1.3-1.23.71-2.23 1.29-1.01.57-2.24.57-1.06 0-1.8-.55-.74-.56-1.19-1.29"/></svg>