<svg xmlns="http://www.w3.org/2000/svg" width="800" height="600" viewBox="0 0 800 600"><rect width="100%" height="100%" fill="#2563eb"/><path fill="#ffffff" d="M179.58 290.16h8.99q4.06 0 7.09-1.02 3.02-1.02 4.97-2.81 1.96-1.79 2.92-4.25t.96-5.4q0-5.89-3.88-9.05-3.88-3.15-11.85-3.15h-9.2zm26.64 11.98 19.37 28.57h-13q-3.69 0-5.35-2.89l-16.26-24.77q-.91-1.39-2.01-1.98t-3.24-.59h-6.15v30.23h-14.39v-77.36h23.59q7.87 0 13.51 1.63 5.65 1.63 9.26 4.57 3.61 2.95 5.32 7.04t1.71 9.02q0 3.9-1.15 7.38t-3.31 6.31q-2.17 2.84-5.36 4.98-3.18 2.14-7.24 3.37 1.39.8 2.56 1.9 1.18 1.09 2.14 2.59m36.12-5.19h24.93q0-2.57-.72-4.84-.73-2.27-2.17-3.99-1.45-1.71-3.67-2.7t-5.16-.99q-5.72 0-9.01 3.27-3.29 3.26-4.2 9.25m33.7 7.97h-33.97q.32 4.23 1.5 7.31 1.17 3.07 3.1 5.08 1.93 2 4.57 2.99 2.65.99 5.86.99t5.54-.74q2.33-.75 4.07-1.66 1.73-.91 3.05-1.66 1.31-.75 2.54-.75 1.65 0 2.46 1.23l3.8 4.81q-2.2 2.57-4.93 4.31-2.72 1.74-5.69 2.78-2.97 1.05-6.05 1.47-3.08.43-5.96.43-5.73 0-10.65-1.9t-8.56-5.61q-3.64-3.72-5.73-9.21-2.08-5.48-2.08-12.7 0-5.62 1.82-10.57t5.21-8.61q3.4-3.67 8.3-5.81 4.89-2.14 11.04-2.14 5.19 0 9.58 1.66t7.54 4.84q3.16 3.19 4.95 7.81 1.79 4.63 1.79 10.57 0 3-.64 4.04t-2.46 1.04m55.8-22.31-3.48 4.82q-.58.75-1.15 1.18-.56.42-1.63.42-1.01 0-1.98-.61-.96-.62-2.3-1.39-1.34-.78-3.18-1.39-1.85-.62-4.58-.62-3.47 0-6.09 1.26-2.63 1.26-4.36 3.61-1.74 2.35-2.6 5.7-.86 3.34-.86 7.57 0 4.38.94 7.81.94 3.42 2.7 5.75 1.77 2.33 4.28 3.53 2.52 1.2 5.67 1.2 3.16 0 5.11-.77 1.96-.78 3.29-1.71 1.34-.94 2.33-1.72.99-.77 2.22-.77 1.61 0 2.41 1.23l3.8 4.81q-2.2 2.57-4.76 4.31-2.57 1.74-5.33 2.78-2.75 1.05-5.67 1.47-2.91.43-5.8.43-5.09 0-9.58-1.9t-7.86-5.53q-3.38-3.64-5.33-8.91t-1.95-12.01q0-6.05 1.74-11.21t5.11-8.94q3.37-3.77 8.34-5.91 4.98-2.14 11.45-2.14 6.15 0 10.78 1.98t8.32 5.67m19.21 14.34h24.93q0-2.57-.72-4.84-.73-2.27-2.17-3.99-1.44-1.71-3.66-2.7t-5.17-.99q-5.72 0-9.01 3.27-3.29 3.26-4.2 9.25m33.7 7.97h-33.97q.32 4.23 1.5 7.31 1.18 3.07 3.1 5.08 1.93 2 4.58 2.99 2.64.99 5.85.99t5.54-.74q2.33-.75 4.07-1.66t3.05-1.66 2.54-.75q1.66 0 2.46 1.23l3.8 4.81q-2.2 2.57-4.92 4.31-2.73 1.74-5.7 2.78-2.97 1.05-6.05 1.47-3.07.43-5.96.43-5.73 0-10.65-1.9t-8.56-5.61q-3.64-3.72-5.72-9.21-2.09-5.48-2.09-12.7 0-5.62 1.82-10.57t5.22-8.61q3.39-3.67 8.29-5.81 4.89-2.14 11.05-2.14 5.18 0 9.57 1.66t7.55 4.84q3.15 3.19 4.94 7.81 1.8 4.63 1.8 10.57 0 3-.65 4.04-.64 1.04-2.46 1.04m26.22-13.05v24.61q2.25 2.73 4.89 3.85 2.65 1.12 5.75 1.12 3 0 5.41-1.12t4.09-3.42q1.69-2.3 2.6-5.81.91-3.5.91-8.26 0-4.82-.78-8.16-.78-3.35-2.22-5.43-1.45-2.09-3.5-3.05-2.06-.97-4.69-.97-4.12 0-7 1.74-2.89 1.74-5.46 4.9m-1.77-13.64 1.07 5.08q3.37-3.8 7.65-6.15 4.28-2.36 10.06-2.36 4.5 0 8.21 1.88 3.72 1.87 6.42 5.43 2.71 3.55 4.18 8.77t1.47 11.96q0 6.15-1.66 11.39-1.66 5.25-4.74 9.1-3.07 3.85-7.43 6.02-4.36 2.16-9.77 2.16-4.6 0-7.86-1.42-3.26-1.41-5.83-3.93v22.47h-13.22v-72.81h8.08q2.57 0 3.37 2.41m67.63 53.34q-7.17 0-11-4.04-3.82-4.04-3.82-11.16v-30.65h-5.62q-1.07 0-1.82-.7-.75-.69-.75-2.09v-5.24l8.83-1.44 2.78-14.98q.27-1.07 1.02-1.66t1.92-.59h6.85v17.28h14.66v9.42h-14.66v29.74q0 2.57 1.26 4.02 1.26 1.44 3.45 1.44 1.23 0 2.06-.29.83-.3 1.44-.62.62-.32 1.1-.62.48-.29.96-.29.59 0 .97.29.37.3.8.89l3.96 6.42q-2.89 2.41-6.64 3.64-3.74 1.23-7.75 1.23m21.93-55.75h13.27v54.89h-13.27zm15.09-16q0 1.71-.7 3.21-.69 1.5-1.84 2.62-1.15 1.13-2.7 1.8-1.56.67-3.32.67-1.71 0-3.24-.67-1.52-.67-2.65-1.8-1.12-1.12-1.79-2.62t-.67-3.21q0-1.76.67-3.31.67-1.56 1.79-2.68 1.13-1.12 2.65-1.79 1.53-.67 3.24-.67 1.76 0 3.32.67 1.55.67 2.7 1.79t1.84 2.68q.7 1.55.7 3.31m35.95 15.14q6.1 0 11.1 1.98t8.56 5.62 5.49 8.88q1.92 5.24 1.92 11.72 0 6.52-1.92 11.77-1.93 5.24-5.49 8.93t-8.56 5.67-11.1 1.98q-6.15 0-11.18-1.98t-8.59-5.67-5.51-8.93q-1.95-5.25-1.95-11.77 0-6.48 1.95-11.72t5.51-8.88 8.59-5.62 11.18-1.98m0 46.39q6.85 0 10.14-4.6t3.29-13.49q0-8.88-3.29-13.53-3.29-4.66-10.14-4.66-6.95 0-10.3 4.69-3.34 4.68-3.34 13.5 0 8.83 3.34 13.46 3.35 4.63 10.3 4.63m48.63-43.12.91 4.33q1.66-1.66 3.51-3.08 1.84-1.41 3.9-2.4t4.42-1.56q2.35-.56 5.13-.56 4.5 0 7.97 1.53 3.48 1.52 5.81 4.28 2.32 2.75 3.53 6.58 1.2 3.82 1.2 8.42v34.94H621.6v-34.94q0-5.02-2.3-7.78t-7.01-2.76q-3.43 0-6.42 1.56-3 1.55-5.67 4.22v39.7h-13.22v-54.89h8.08q2.57 0 3.37 2.41"/></svg>